<mxfile host="app.diagrams.net" modified="2022-04-25T04:26:16.449Z" agent="5.0 (Windows NT 10.0; Win64; x64) AppleWebKit/537.36 (KHTML, like Gecko) Chrome/99.0.4844.84 Safari/537.36 OPR/85.0.4341.72" etag="uGlF7IG-It8GR4pTjCk_" version="17.4.6" type="github">
  <diagram id="m27LijACRjWisXeR9z6p" name="Page-1">
    <mxGraphModel dx="2021" dy="1925" grid="1" gridSize="10" guides="1" tooltips="1" connect="1" arrows="1" fold="1" page="1" pageScale="1" pageWidth="827" pageHeight="1169" math="0" shadow="0">
      <root>
        <mxCell id="0" />
        <mxCell id="1" parent="0" />
        <mxCell id="S30Q8tdorim46JoX9we_-12" style="edgeStyle=orthogonalEdgeStyle;rounded=0;orthogonalLoop=1;jettySize=auto;html=1;entryX=0.98;entryY=0.825;entryDx=0;entryDy=0;entryPerimeter=0;" parent="1" source="S30Q8tdorim46JoX9we_-1" target="S30Q8tdorim46JoX9we_-3" edge="1">
          <mxGeometry relative="1" as="geometry" />
        </mxCell>
        <mxCell id="S30Q8tdorim46JoX9we_-13" style="edgeStyle=orthogonalEdgeStyle;rounded=0;orthogonalLoop=1;jettySize=auto;html=1;" parent="1" source="S30Q8tdorim46JoX9we_-1" target="S30Q8tdorim46JoX9we_-4" edge="1">
          <mxGeometry relative="1" as="geometry">
            <Array as="points">
              <mxPoint x="350" y="250" />
              <mxPoint x="350" y="230" />
            </Array>
          </mxGeometry>
        </mxCell>
        <mxCell id="S30Q8tdorim46JoX9we_-15" style="edgeStyle=orthogonalEdgeStyle;rounded=0;orthogonalLoop=1;jettySize=auto;html=1;entryX=0.26;entryY=0;entryDx=0;entryDy=0;entryPerimeter=0;" parent="1" source="S30Q8tdorim46JoX9we_-1" target="S30Q8tdorim46JoX9we_-8" edge="1">
          <mxGeometry relative="1" as="geometry" />
        </mxCell>
        <mxCell id="S30Q8tdorim46JoX9we_-20" style="edgeStyle=orthogonalEdgeStyle;rounded=0;orthogonalLoop=1;jettySize=auto;html=1;entryX=1;entryY=0.25;entryDx=0;entryDy=0;entryPerimeter=0;" parent="1" source="S30Q8tdorim46JoX9we_-1" target="S30Q8tdorim46JoX9we_-5" edge="1">
          <mxGeometry relative="1" as="geometry" />
        </mxCell>
        <mxCell id="-x1Lza4WPiMV8X5rYuyz-5" value="" style="edgeStyle=orthogonalEdgeStyle;rounded=0;orthogonalLoop=1;jettySize=auto;html=1;" edge="1" parent="1" source="S30Q8tdorim46JoX9we_-1" target="-x1Lza4WPiMV8X5rYuyz-4">
          <mxGeometry relative="1" as="geometry" />
        </mxCell>
        <mxCell id="-x1Lza4WPiMV8X5rYuyz-7" style="edgeStyle=orthogonalEdgeStyle;rounded=0;orthogonalLoop=1;jettySize=auto;html=1;entryX=0;entryY=0.5;entryDx=0;entryDy=0;" edge="1" parent="1" source="S30Q8tdorim46JoX9we_-1" target="-x1Lza4WPiMV8X5rYuyz-6">
          <mxGeometry relative="1" as="geometry">
            <Array as="points">
              <mxPoint x="430" y="220" />
              <mxPoint x="480" y="220" />
              <mxPoint x="480" y="210" />
              <mxPoint x="470" y="210" />
              <mxPoint x="470" y="190" />
            </Array>
          </mxGeometry>
        </mxCell>
        <mxCell id="-x1Lza4WPiMV8X5rYuyz-11" style="edgeStyle=orthogonalEdgeStyle;rounded=0;orthogonalLoop=1;jettySize=auto;html=1;entryX=0;entryY=0.5;entryDx=0;entryDy=0;" edge="1" parent="1" source="S30Q8tdorim46JoX9we_-1" target="-x1Lza4WPiMV8X5rYuyz-10">
          <mxGeometry relative="1" as="geometry" />
        </mxCell>
        <mxCell id="-x1Lza4WPiMV8X5rYuyz-13" style="edgeStyle=orthogonalEdgeStyle;rounded=0;orthogonalLoop=1;jettySize=auto;html=1;entryX=0.66;entryY=1.025;entryDx=0;entryDy=0;entryPerimeter=0;" edge="1" parent="1" source="S30Q8tdorim46JoX9we_-1" target="-x1Lza4WPiMV8X5rYuyz-12">
          <mxGeometry relative="1" as="geometry" />
        </mxCell>
        <mxCell id="S30Q8tdorim46JoX9we_-1" value="Pessoa" style="whiteSpace=wrap;html=1;align=center;" parent="1" vertex="1">
          <mxGeometry x="360" y="230" width="100" height="40" as="geometry" />
        </mxCell>
        <mxCell id="S30Q8tdorim46JoX9we_-3" value="email" style="ellipse;shape=doubleEllipse;margin=3;whiteSpace=wrap;html=1;align=center;" parent="1" vertex="1">
          <mxGeometry x="260" y="150" width="100" height="40" as="geometry" />
        </mxCell>
        <mxCell id="S30Q8tdorim46JoX9we_-4" value="Foto" style="ellipse;whiteSpace=wrap;html=1;align=center;" parent="1" vertex="1">
          <mxGeometry x="210" y="210" width="100" height="40" as="geometry" />
        </mxCell>
        <mxCell id="S30Q8tdorim46JoX9we_-5" value="Idade" style="ellipse;whiteSpace=wrap;html=1;align=center;dashed=1;" parent="1" vertex="1">
          <mxGeometry x="200" y="300" width="100" height="40" as="geometry" />
        </mxCell>
        <mxCell id="S30Q8tdorim46JoX9we_-17" style="edgeStyle=orthogonalEdgeStyle;rounded=0;orthogonalLoop=1;jettySize=auto;html=1;entryX=0;entryY=0;entryDx=0;entryDy=0;" parent="1" source="S30Q8tdorim46JoX9we_-8" target="S30Q8tdorim46JoX9we_-10" edge="1">
          <mxGeometry relative="1" as="geometry" />
        </mxCell>
        <mxCell id="S30Q8tdorim46JoX9we_-18" style="edgeStyle=orthogonalEdgeStyle;rounded=0;orthogonalLoop=1;jettySize=auto;html=1;entryX=0;entryY=0.25;entryDx=0;entryDy=0;entryPerimeter=0;" parent="1" source="S30Q8tdorim46JoX9we_-8" target="S30Q8tdorim46JoX9we_-11" edge="1">
          <mxGeometry relative="1" as="geometry" />
        </mxCell>
        <mxCell id="S30Q8tdorim46JoX9we_-21" style="edgeStyle=orthogonalEdgeStyle;rounded=0;orthogonalLoop=1;jettySize=auto;html=1;entryX=0.5;entryY=0;entryDx=0;entryDy=0;" parent="1" source="S30Q8tdorim46JoX9we_-8" target="S30Q8tdorim46JoX9we_-9" edge="1">
          <mxGeometry relative="1" as="geometry">
            <mxPoint x="350" y="350" as="targetPoint" />
          </mxGeometry>
        </mxCell>
        <mxCell id="S30Q8tdorim46JoX9we_-8" value="Data de Nascimento" style="ellipse;whiteSpace=wrap;html=1;align=center;" parent="1" vertex="1">
          <mxGeometry x="390" y="310" width="100" height="40" as="geometry" />
        </mxCell>
        <mxCell id="S30Q8tdorim46JoX9we_-9" value="Dia" style="ellipse;whiteSpace=wrap;html=1;align=center;" parent="1" vertex="1">
          <mxGeometry x="280" y="370" width="100" height="40" as="geometry" />
        </mxCell>
        <mxCell id="S30Q8tdorim46JoX9we_-10" value="Mes" style="ellipse;whiteSpace=wrap;html=1;align=center;" parent="1" vertex="1">
          <mxGeometry x="430" y="380" width="100" height="40" as="geometry" />
        </mxCell>
        <mxCell id="S30Q8tdorim46JoX9we_-11" value="Ano" style="ellipse;whiteSpace=wrap;html=1;align=center;" parent="1" vertex="1">
          <mxGeometry x="530" y="300" width="100" height="40" as="geometry" />
        </mxCell>
        <mxCell id="-x1Lza4WPiMV8X5rYuyz-4" value="CPF" style="ellipse;whiteSpace=wrap;html=1;align=center;fontStyle=4;" vertex="1" parent="1">
          <mxGeometry x="520" y="230" width="100" height="40" as="geometry" />
        </mxCell>
        <mxCell id="-x1Lza4WPiMV8X5rYuyz-6" value="Sexo" style="ellipse;whiteSpace=wrap;html=1;align=center;" vertex="1" parent="1">
          <mxGeometry x="490" y="170" width="100" height="40" as="geometry" />
        </mxCell>
        <mxCell id="-x1Lza4WPiMV8X5rYuyz-10" value="Telefone" style="ellipse;shape=doubleEllipse;margin=3;whiteSpace=wrap;html=1;align=center;" vertex="1" parent="1">
          <mxGeometry x="440" y="110" width="100" height="40" as="geometry" />
        </mxCell>
        <mxCell id="-x1Lza4WPiMV8X5rYuyz-15" value="" style="edgeStyle=orthogonalEdgeStyle;rounded=0;orthogonalLoop=1;jettySize=auto;html=1;" edge="1" parent="1" source="-x1Lza4WPiMV8X5rYuyz-12" target="-x1Lza4WPiMV8X5rYuyz-14">
          <mxGeometry relative="1" as="geometry" />
        </mxCell>
        <mxCell id="-x1Lza4WPiMV8X5rYuyz-12" value="Nome" style="ellipse;whiteSpace=wrap;html=1;align=center;" vertex="1" parent="1">
          <mxGeometry x="300" y="70" width="100" height="40" as="geometry" />
        </mxCell>
        <mxCell id="-x1Lza4WPiMV8X5rYuyz-14" value="Sobrenome" style="ellipse;whiteSpace=wrap;html=1;align=center;" vertex="1" parent="1">
          <mxGeometry x="160" y="70" width="100" height="40" as="geometry" />
        </mxCell>
        <mxCell id="-x1Lza4WPiMV8X5rYuyz-20" value="" style="edgeStyle=orthogonalEdgeStyle;rounded=0;orthogonalLoop=1;jettySize=auto;html=1;" edge="1" parent="1" source="-x1Lza4WPiMV8X5rYuyz-16" target="-x1Lza4WPiMV8X5rYuyz-19">
          <mxGeometry relative="1" as="geometry" />
        </mxCell>
        <mxCell id="-x1Lza4WPiMV8X5rYuyz-22" value="" style="edgeStyle=orthogonalEdgeStyle;rounded=0;orthogonalLoop=1;jettySize=auto;html=1;" edge="1" parent="1" source="-x1Lza4WPiMV8X5rYuyz-16" target="-x1Lza4WPiMV8X5rYuyz-21">
          <mxGeometry relative="1" as="geometry" />
        </mxCell>
        <mxCell id="-x1Lza4WPiMV8X5rYuyz-24" value="" style="edgeStyle=orthogonalEdgeStyle;rounded=0;orthogonalLoop=1;jettySize=auto;html=1;" edge="1" parent="1" source="-x1Lza4WPiMV8X5rYuyz-16" target="-x1Lza4WPiMV8X5rYuyz-23">
          <mxGeometry relative="1" as="geometry" />
        </mxCell>
        <mxCell id="-x1Lza4WPiMV8X5rYuyz-27" style="edgeStyle=orthogonalEdgeStyle;rounded=0;orthogonalLoop=1;jettySize=auto;html=1;entryX=0;entryY=0.5;entryDx=0;entryDy=0;" edge="1" parent="1" source="-x1Lza4WPiMV8X5rYuyz-16" target="-x1Lza4WPiMV8X5rYuyz-26">
          <mxGeometry relative="1" as="geometry" />
        </mxCell>
        <mxCell id="-x1Lza4WPiMV8X5rYuyz-28" style="edgeStyle=orthogonalEdgeStyle;rounded=0;orthogonalLoop=1;jettySize=auto;html=1;entryX=0;entryY=0.5;entryDx=0;entryDy=0;" edge="1" parent="1" source="-x1Lza4WPiMV8X5rYuyz-16" target="-x1Lza4WPiMV8X5rYuyz-25">
          <mxGeometry relative="1" as="geometry" />
        </mxCell>
        <mxCell id="-x1Lza4WPiMV8X5rYuyz-30" style="edgeStyle=orthogonalEdgeStyle;rounded=0;orthogonalLoop=1;jettySize=auto;html=1;" edge="1" parent="1" source="-x1Lza4WPiMV8X5rYuyz-16">
          <mxGeometry relative="1" as="geometry">
            <mxPoint x="910" y="350" as="targetPoint" />
          </mxGeometry>
        </mxCell>
        <mxCell id="-x1Lza4WPiMV8X5rYuyz-46" style="edgeStyle=orthogonalEdgeStyle;rounded=0;orthogonalLoop=1;jettySize=auto;html=1;entryX=0.43;entryY=0;entryDx=0;entryDy=0;entryPerimeter=0;" edge="1" parent="1" source="-x1Lza4WPiMV8X5rYuyz-16" target="-x1Lza4WPiMV8X5rYuyz-45">
          <mxGeometry relative="1" as="geometry">
            <Array as="points">
              <mxPoint x="840" y="280" />
              <mxPoint x="733" y="280" />
            </Array>
          </mxGeometry>
        </mxCell>
        <mxCell id="-x1Lza4WPiMV8X5rYuyz-16" value="Aluno" style="shape=ext;margin=3;double=1;whiteSpace=wrap;html=1;align=center;" vertex="1" parent="1">
          <mxGeometry x="790" y="220" width="100" height="40" as="geometry" />
        </mxCell>
        <mxCell id="-x1Lza4WPiMV8X5rYuyz-18" value="Pode ser" style="shape=rhombus;double=1;perimeter=rhombusPerimeter;whiteSpace=wrap;html=1;align=center;" vertex="1" parent="1">
          <mxGeometry x="640" y="210" width="120" height="60" as="geometry" />
        </mxCell>
        <mxCell id="-x1Lza4WPiMV8X5rYuyz-19" value="&lt;span style=&quot;border-bottom: 1px dotted&quot;&gt;CPF&lt;/span&gt;" style="ellipse;whiteSpace=wrap;html=1;align=center;" vertex="1" parent="1">
          <mxGeometry x="790" y="140" width="100" height="40" as="geometry" />
        </mxCell>
        <mxCell id="-x1Lza4WPiMV8X5rYuyz-21" value="Matriculado" style="ellipse;whiteSpace=wrap;html=1;align=center;" vertex="1" parent="1">
          <mxGeometry x="790" y="300" width="100" height="40" as="geometry" />
        </mxCell>
        <mxCell id="-x1Lza4WPiMV8X5rYuyz-23" value="IMC" style="ellipse;whiteSpace=wrap;html=1;align=center;dashed=1;" vertex="1" parent="1">
          <mxGeometry x="930" y="220" width="100" height="40" as="geometry" />
        </mxCell>
        <mxCell id="-x1Lza4WPiMV8X5rYuyz-25" value="Altura" style="ellipse;whiteSpace=wrap;html=1;align=center;" vertex="1" parent="1">
          <mxGeometry x="930" y="290" width="100" height="40" as="geometry" />
        </mxCell>
        <mxCell id="-x1Lza4WPiMV8X5rYuyz-26" value="Peso" style="ellipse;whiteSpace=wrap;html=1;align=center;" vertex="1" parent="1">
          <mxGeometry x="930" y="140" width="100" height="40" as="geometry" />
        </mxCell>
        <mxCell id="-x1Lza4WPiMV8X5rYuyz-29" value="Saldo" style="ellipse;whiteSpace=wrap;html=1;align=center;" vertex="1" parent="1">
          <mxGeometry x="860" y="350" width="100" height="40" as="geometry" />
        </mxCell>
        <mxCell id="-x1Lza4WPiMV8X5rYuyz-36" value="" style="edgeStyle=orthogonalEdgeStyle;rounded=0;orthogonalLoop=1;jettySize=auto;html=1;" edge="1" parent="1" source="-x1Lza4WPiMV8X5rYuyz-31" target="-x1Lza4WPiMV8X5rYuyz-35">
          <mxGeometry relative="1" as="geometry" />
        </mxCell>
        <mxCell id="-x1Lza4WPiMV8X5rYuyz-44" value="" style="edgeStyle=orthogonalEdgeStyle;rounded=0;orthogonalLoop=1;jettySize=auto;html=1;" edge="1" parent="1" source="-x1Lza4WPiMV8X5rYuyz-31" target="-x1Lza4WPiMV8X5rYuyz-37">
          <mxGeometry relative="1" as="geometry" />
        </mxCell>
        <mxCell id="-x1Lza4WPiMV8X5rYuyz-48" value="" style="edgeStyle=orthogonalEdgeStyle;rounded=0;orthogonalLoop=1;jettySize=auto;html=1;" edge="1" parent="1" source="-x1Lza4WPiMV8X5rYuyz-31" target="-x1Lza4WPiMV8X5rYuyz-47">
          <mxGeometry relative="1" as="geometry" />
        </mxCell>
        <mxCell id="-x1Lza4WPiMV8X5rYuyz-31" value="Funcionario" style="shape=ext;margin=3;double=1;whiteSpace=wrap;html=1;align=center;" vertex="1" parent="1">
          <mxGeometry x="360" y="560" width="100" height="40" as="geometry" />
        </mxCell>
        <mxCell id="-x1Lza4WPiMV8X5rYuyz-34" value="Pode ser" style="shape=rhombus;double=1;perimeter=rhombusPerimeter;whiteSpace=wrap;html=1;align=center;" vertex="1" parent="1">
          <mxGeometry x="200" y="440" width="120" height="60" as="geometry" />
        </mxCell>
        <mxCell id="-x1Lza4WPiMV8X5rYuyz-35" value="Função" style="ellipse;whiteSpace=wrap;html=1;align=center;" vertex="1" parent="1">
          <mxGeometry x="360" y="480" width="100" height="40" as="geometry" />
        </mxCell>
        <mxCell id="-x1Lza4WPiMV8X5rYuyz-39" value="" style="edgeStyle=orthogonalEdgeStyle;rounded=0;orthogonalLoop=1;jettySize=auto;html=1;" edge="1" parent="1" source="-x1Lza4WPiMV8X5rYuyz-37" target="-x1Lza4WPiMV8X5rYuyz-38">
          <mxGeometry relative="1" as="geometry" />
        </mxCell>
        <mxCell id="-x1Lza4WPiMV8X5rYuyz-41" value="" style="edgeStyle=orthogonalEdgeStyle;rounded=0;orthogonalLoop=1;jettySize=auto;html=1;" edge="1" parent="1" source="-x1Lza4WPiMV8X5rYuyz-37" target="-x1Lza4WPiMV8X5rYuyz-40">
          <mxGeometry relative="1" as="geometry" />
        </mxCell>
        <mxCell id="-x1Lza4WPiMV8X5rYuyz-43" value="" style="edgeStyle=orthogonalEdgeStyle;rounded=0;orthogonalLoop=1;jettySize=auto;html=1;" edge="1" parent="1" source="-x1Lza4WPiMV8X5rYuyz-37" target="-x1Lza4WPiMV8X5rYuyz-42">
          <mxGeometry relative="1" as="geometry" />
        </mxCell>
        <mxCell id="-x1Lza4WPiMV8X5rYuyz-37" value="Data de admissão" style="ellipse;whiteSpace=wrap;html=1;align=center;" vertex="1" parent="1">
          <mxGeometry x="510" y="560" width="100" height="40" as="geometry" />
        </mxCell>
        <mxCell id="-x1Lza4WPiMV8X5rYuyz-38" value="Dia" style="ellipse;whiteSpace=wrap;html=1;align=center;" vertex="1" parent="1">
          <mxGeometry x="510" y="480" width="100" height="40" as="geometry" />
        </mxCell>
        <mxCell id="-x1Lza4WPiMV8X5rYuyz-40" value="Mês" style="ellipse;whiteSpace=wrap;html=1;align=center;" vertex="1" parent="1">
          <mxGeometry x="650" y="560" width="100" height="40" as="geometry" />
        </mxCell>
        <mxCell id="-x1Lza4WPiMV8X5rYuyz-42" value="Ano" style="ellipse;whiteSpace=wrap;html=1;align=center;" vertex="1" parent="1">
          <mxGeometry x="510" y="640" width="100" height="40" as="geometry" />
        </mxCell>
        <mxCell id="-x1Lza4WPiMV8X5rYuyz-45" value="Data Matricula" style="ellipse;whiteSpace=wrap;html=1;align=center;" vertex="1" parent="1">
          <mxGeometry x="690" y="330" width="100" height="40" as="geometry" />
        </mxCell>
        <mxCell id="-x1Lza4WPiMV8X5rYuyz-47" value="&lt;span style=&quot;border-bottom: 1px dotted&quot;&gt;CPF&lt;/span&gt;" style="ellipse;whiteSpace=wrap;html=1;align=center;" vertex="1" parent="1">
          <mxGeometry x="360" y="630" width="100" height="40" as="geometry" />
        </mxCell>
        <mxCell id="-x1Lza4WPiMV8X5rYuyz-49" value="" style="endArrow=none;html=1;rounded=0;exitX=0.12;exitY=1.05;exitDx=0;exitDy=0;exitPerimeter=0;entryX=0.5;entryY=0;entryDx=0;entryDy=0;" edge="1" parent="1" source="S30Q8tdorim46JoX9we_-1" target="-x1Lza4WPiMV8X5rYuyz-34">
          <mxGeometry relative="1" as="geometry">
            <mxPoint x="330" y="390" as="sourcePoint" />
            <mxPoint x="490" y="390" as="targetPoint" />
            <Array as="points">
              <mxPoint x="270" y="370" />
            </Array>
          </mxGeometry>
        </mxCell>
        <mxCell id="-x1Lza4WPiMV8X5rYuyz-50" value="1" style="resizable=0;html=1;align=right;verticalAlign=bottom;" connectable="0" vertex="1" parent="-x1Lza4WPiMV8X5rYuyz-49">
          <mxGeometry x="1" relative="1" as="geometry" />
        </mxCell>
        <mxCell id="-x1Lza4WPiMV8X5rYuyz-53" value="" style="endArrow=none;html=1;rounded=0;entryX=0;entryY=0.5;entryDx=0;entryDy=0;exitX=0.69;exitY=1.05;exitDx=0;exitDy=0;exitPerimeter=0;" edge="1" parent="1" source="S30Q8tdorim46JoX9we_-1" target="-x1Lza4WPiMV8X5rYuyz-18">
          <mxGeometry relative="1" as="geometry">
            <mxPoint x="440" y="280" as="sourcePoint" />
            <mxPoint x="600" y="280" as="targetPoint" />
            <Array as="points">
              <mxPoint x="620" y="290" />
            </Array>
          </mxGeometry>
        </mxCell>
        <mxCell id="-x1Lza4WPiMV8X5rYuyz-54" value="1" style="resizable=0;html=1;align=right;verticalAlign=bottom;" connectable="0" vertex="1" parent="-x1Lza4WPiMV8X5rYuyz-53">
          <mxGeometry x="1" relative="1" as="geometry" />
        </mxCell>
        <mxCell id="-x1Lza4WPiMV8X5rYuyz-61" value="" style="edgeStyle=orthogonalEdgeStyle;rounded=0;orthogonalLoop=1;jettySize=auto;html=1;" edge="1" parent="1" source="-x1Lza4WPiMV8X5rYuyz-57" target="-x1Lza4WPiMV8X5rYuyz-58">
          <mxGeometry relative="1" as="geometry" />
        </mxCell>
        <mxCell id="-x1Lza4WPiMV8X5rYuyz-62" value="" style="edgeStyle=orthogonalEdgeStyle;rounded=0;orthogonalLoop=1;jettySize=auto;html=1;" edge="1" parent="1" source="-x1Lza4WPiMV8X5rYuyz-57" target="-x1Lza4WPiMV8X5rYuyz-59">
          <mxGeometry relative="1" as="geometry" />
        </mxCell>
        <mxCell id="-x1Lza4WPiMV8X5rYuyz-63" style="edgeStyle=orthogonalEdgeStyle;rounded=0;orthogonalLoop=1;jettySize=auto;html=1;entryX=0.6;entryY=1;entryDx=0;entryDy=0;entryPerimeter=0;" edge="1" parent="1" source="-x1Lza4WPiMV8X5rYuyz-57" target="-x1Lza4WPiMV8X5rYuyz-60">
          <mxGeometry relative="1" as="geometry" />
        </mxCell>
        <mxCell id="-x1Lza4WPiMV8X5rYuyz-57" value="Carga" style="whiteSpace=wrap;html=1;align=center;" vertex="1" parent="1">
          <mxGeometry x="1802" y="260" width="100" height="40" as="geometry" />
        </mxCell>
        <mxCell id="-x1Lza4WPiMV8X5rYuyz-58" value="codigo" style="ellipse;whiteSpace=wrap;html=1;align=center;" vertex="1" parent="1">
          <mxGeometry x="1802" y="190" width="100" height="40" as="geometry" />
        </mxCell>
        <mxCell id="-x1Lza4WPiMV8X5rYuyz-59" value="Massa" style="ellipse;whiteSpace=wrap;html=1;align=center;" vertex="1" parent="1">
          <mxGeometry x="1802" y="330" width="100" height="40" as="geometry" />
        </mxCell>
        <mxCell id="-x1Lza4WPiMV8X5rYuyz-60" value="Localizacao" style="ellipse;whiteSpace=wrap;html=1;align=center;" vertex="1" parent="1">
          <mxGeometry x="1678" y="190" width="100" height="40" as="geometry" />
        </mxCell>
        <mxCell id="-x1Lza4WPiMV8X5rYuyz-73" value="" style="edgeStyle=orthogonalEdgeStyle;rounded=0;orthogonalLoop=1;jettySize=auto;html=1;" edge="1" parent="1" source="-x1Lza4WPiMV8X5rYuyz-64" target="-x1Lza4WPiMV8X5rYuyz-67">
          <mxGeometry relative="1" as="geometry" />
        </mxCell>
        <mxCell id="-x1Lza4WPiMV8X5rYuyz-74" value="" style="edgeStyle=orthogonalEdgeStyle;rounded=0;orthogonalLoop=1;jettySize=auto;html=1;" edge="1" parent="1" source="-x1Lza4WPiMV8X5rYuyz-64" target="-x1Lza4WPiMV8X5rYuyz-66">
          <mxGeometry relative="1" as="geometry" />
        </mxCell>
        <mxCell id="-x1Lza4WPiMV8X5rYuyz-77" value="" style="edgeStyle=orthogonalEdgeStyle;rounded=0;orthogonalLoop=1;jettySize=auto;html=1;" edge="1" parent="1" source="-x1Lza4WPiMV8X5rYuyz-64" target="-x1Lza4WPiMV8X5rYuyz-65">
          <mxGeometry relative="1" as="geometry" />
        </mxCell>
        <mxCell id="-x1Lza4WPiMV8X5rYuyz-64" value="Plano" style="whiteSpace=wrap;html=1;align=center;" vertex="1" parent="1">
          <mxGeometry x="790" y="-40" width="100" height="40" as="geometry" />
        </mxCell>
        <mxCell id="-x1Lza4WPiMV8X5rYuyz-65" value="Nome" style="ellipse;whiteSpace=wrap;html=1;align=center;" vertex="1" parent="1">
          <mxGeometry x="660" y="-40" width="100" height="40" as="geometry" />
        </mxCell>
        <mxCell id="-x1Lza4WPiMV8X5rYuyz-66" value="Preço" style="ellipse;whiteSpace=wrap;html=1;align=center;" vertex="1" parent="1">
          <mxGeometry x="790" y="-110" width="100" height="40" as="geometry" />
        </mxCell>
        <mxCell id="-x1Lza4WPiMV8X5rYuyz-67" value="Codigo" style="ellipse;whiteSpace=wrap;html=1;align=center;fontStyle=4;" vertex="1" parent="1">
          <mxGeometry x="910" y="-40" width="100" height="40" as="geometry" />
        </mxCell>
        <mxCell id="-x1Lza4WPiMV8X5rYuyz-68" value="Relationship" style="shape=rhombus;double=1;perimeter=rhombusPerimeter;whiteSpace=wrap;html=1;align=center;" vertex="1" parent="1">
          <mxGeometry x="690" y="50" width="120" height="60" as="geometry" />
        </mxCell>
        <mxCell id="-x1Lza4WPiMV8X5rYuyz-71" value="" style="endArrow=none;html=1;rounded=0;entryX=0.5;entryY=1;entryDx=0;entryDy=0;exitX=0.5;exitY=0;exitDx=0;exitDy=0;" edge="1" parent="1" source="-x1Lza4WPiMV8X5rYuyz-68" target="-x1Lza4WPiMV8X5rYuyz-64">
          <mxGeometry relative="1" as="geometry">
            <mxPoint x="690" y="90" as="sourcePoint" />
            <mxPoint x="850" y="90" as="targetPoint" />
          </mxGeometry>
        </mxCell>
        <mxCell id="-x1Lza4WPiMV8X5rYuyz-72" value="1" style="resizable=0;html=1;align=right;verticalAlign=bottom;" connectable="0" vertex="1" parent="-x1Lza4WPiMV8X5rYuyz-71">
          <mxGeometry x="1" relative="1" as="geometry" />
        </mxCell>
        <mxCell id="-x1Lza4WPiMV8X5rYuyz-78" value="" style="endArrow=none;html=1;rounded=0;exitX=0.5;exitY=1;exitDx=0;exitDy=0;entryX=0;entryY=0;entryDx=0;entryDy=0;" edge="1" parent="1" source="-x1Lza4WPiMV8X5rYuyz-68" target="-x1Lza4WPiMV8X5rYuyz-16">
          <mxGeometry relative="1" as="geometry">
            <mxPoint x="690" y="90" as="sourcePoint" />
            <mxPoint x="790" y="210" as="targetPoint" />
          </mxGeometry>
        </mxCell>
        <mxCell id="-x1Lza4WPiMV8X5rYuyz-79" value="N" style="resizable=0;html=1;align=right;verticalAlign=bottom;" connectable="0" vertex="1" parent="-x1Lza4WPiMV8X5rYuyz-78">
          <mxGeometry x="1" relative="1" as="geometry" />
        </mxCell>
        <mxCell id="-x1Lza4WPiMV8X5rYuyz-80" value="" style="endArrow=none;html=1;rounded=0;entryX=0;entryY=0.5;entryDx=0;entryDy=0;" edge="1" parent="1" target="-x1Lza4WPiMV8X5rYuyz-16">
          <mxGeometry relative="1" as="geometry">
            <mxPoint x="760" y="240" as="sourcePoint" />
            <mxPoint x="920" y="240" as="targetPoint" />
          </mxGeometry>
        </mxCell>
        <mxCell id="-x1Lza4WPiMV8X5rYuyz-81" value="N" style="resizable=0;html=1;align=right;verticalAlign=bottom;" connectable="0" vertex="1" parent="-x1Lza4WPiMV8X5rYuyz-80">
          <mxGeometry x="1" relative="1" as="geometry" />
        </mxCell>
        <mxCell id="-x1Lza4WPiMV8X5rYuyz-82" value="" style="endArrow=none;html=1;rounded=0;exitX=0.5;exitY=1;exitDx=0;exitDy=0;entryX=0;entryY=0.5;entryDx=0;entryDy=0;" edge="1" parent="1" source="-x1Lza4WPiMV8X5rYuyz-34" target="-x1Lza4WPiMV8X5rYuyz-31">
          <mxGeometry relative="1" as="geometry">
            <mxPoint x="40" y="520" as="sourcePoint" />
            <mxPoint x="200" y="520" as="targetPoint" />
          </mxGeometry>
        </mxCell>
        <mxCell id="-x1Lza4WPiMV8X5rYuyz-83" value="N" style="resizable=0;html=1;align=right;verticalAlign=bottom;" connectable="0" vertex="1" parent="-x1Lza4WPiMV8X5rYuyz-82">
          <mxGeometry x="1" relative="1" as="geometry" />
        </mxCell>
        <mxCell id="-x1Lza4WPiMV8X5rYuyz-84" value="Localizacao" style="ellipse;whiteSpace=wrap;html=1;align=center;" vertex="1" parent="1">
          <mxGeometry x="1598" y="440" width="100" height="40" as="geometry" />
        </mxCell>
        <mxCell id="-x1Lza4WPiMV8X5rYuyz-96" style="edgeStyle=orthogonalEdgeStyle;rounded=0;orthogonalLoop=1;jettySize=auto;html=1;entryX=1;entryY=0.5;entryDx=0;entryDy=0;" edge="1" parent="1" source="-x1Lza4WPiMV8X5rYuyz-85" target="-x1Lza4WPiMV8X5rYuyz-93">
          <mxGeometry relative="1" as="geometry" />
        </mxCell>
        <mxCell id="-x1Lza4WPiMV8X5rYuyz-99" value="" style="edgeStyle=orthogonalEdgeStyle;rounded=0;orthogonalLoop=1;jettySize=auto;html=1;" edge="1" parent="1" source="-x1Lza4WPiMV8X5rYuyz-85" target="-x1Lza4WPiMV8X5rYuyz-87">
          <mxGeometry relative="1" as="geometry" />
        </mxCell>
        <mxCell id="-x1Lza4WPiMV8X5rYuyz-100" style="edgeStyle=orthogonalEdgeStyle;rounded=0;orthogonalLoop=1;jettySize=auto;html=1;" edge="1" parent="1" source="-x1Lza4WPiMV8X5rYuyz-85">
          <mxGeometry relative="1" as="geometry">
            <mxPoint x="1528" y="590" as="targetPoint" />
          </mxGeometry>
        </mxCell>
        <mxCell id="-x1Lza4WPiMV8X5rYuyz-101" style="edgeStyle=orthogonalEdgeStyle;rounded=0;orthogonalLoop=1;jettySize=auto;html=1;entryX=0;entryY=0.5;entryDx=0;entryDy=0;" edge="1" parent="1" source="-x1Lza4WPiMV8X5rYuyz-85" target="-x1Lza4WPiMV8X5rYuyz-86">
          <mxGeometry relative="1" as="geometry" />
        </mxCell>
        <mxCell id="-x1Lza4WPiMV8X5rYuyz-102" style="edgeStyle=orthogonalEdgeStyle;rounded=0;orthogonalLoop=1;jettySize=auto;html=1;entryX=0;entryY=0.25;entryDx=0;entryDy=0;entryPerimeter=0;" edge="1" parent="1" source="-x1Lza4WPiMV8X5rYuyz-85" target="-x1Lza4WPiMV8X5rYuyz-88">
          <mxGeometry relative="1" as="geometry" />
        </mxCell>
        <mxCell id="-x1Lza4WPiMV8X5rYuyz-103" value="" style="edgeStyle=orthogonalEdgeStyle;rounded=0;orthogonalLoop=1;jettySize=auto;html=1;" edge="1" parent="1" source="-x1Lza4WPiMV8X5rYuyz-85" target="-x1Lza4WPiMV8X5rYuyz-84">
          <mxGeometry relative="1" as="geometry" />
        </mxCell>
        <mxCell id="-x1Lza4WPiMV8X5rYuyz-85" value="Maquina" style="whiteSpace=wrap;html=1;align=center;" vertex="1" parent="1">
          <mxGeometry x="1598" y="520" width="100" height="40" as="geometry" />
        </mxCell>
        <mxCell id="-x1Lza4WPiMV8X5rYuyz-86" value="Preço" style="ellipse;whiteSpace=wrap;html=1;align=center;" vertex="1" parent="1">
          <mxGeometry x="1748" y="520" width="100" height="40" as="geometry" />
        </mxCell>
        <mxCell id="-x1Lza4WPiMV8X5rYuyz-87" value="Objetivo" style="ellipse;whiteSpace=wrap;html=1;align=center;" vertex="1" parent="1">
          <mxGeometry x="1598" y="600" width="100" height="40" as="geometry" />
        </mxCell>
        <mxCell id="-x1Lza4WPiMV8X5rYuyz-88" value="Nome" style="ellipse;whiteSpace=wrap;html=1;align=center;" vertex="1" parent="1">
          <mxGeometry x="1758" y="600" width="100" height="40" as="geometry" />
        </mxCell>
        <mxCell id="-x1Lza4WPiMV8X5rYuyz-89" value="codigo" style="ellipse;whiteSpace=wrap;html=1;align=center;fontStyle=4;" vertex="1" parent="1">
          <mxGeometry x="1478" y="600" width="100" height="40" as="geometry" />
        </mxCell>
        <mxCell id="-x1Lza4WPiMV8X5rYuyz-90" value="" style="edgeStyle=orthogonalEdgeStyle;rounded=0;orthogonalLoop=1;jettySize=auto;html=1;" edge="1" parent="1" source="-x1Lza4WPiMV8X5rYuyz-93" target="-x1Lza4WPiMV8X5rYuyz-94">
          <mxGeometry relative="1" as="geometry" />
        </mxCell>
        <mxCell id="-x1Lza4WPiMV8X5rYuyz-92" value="" style="edgeStyle=orthogonalEdgeStyle;rounded=0;orthogonalLoop=1;jettySize=auto;html=1;" edge="1" parent="1" source="-x1Lza4WPiMV8X5rYuyz-93" target="-x1Lza4WPiMV8X5rYuyz-95">
          <mxGeometry relative="1" as="geometry" />
        </mxCell>
        <mxCell id="-x1Lza4WPiMV8X5rYuyz-98" value="" style="edgeStyle=orthogonalEdgeStyle;rounded=0;orthogonalLoop=1;jettySize=auto;html=1;" edge="1" parent="1" source="-x1Lza4WPiMV8X5rYuyz-93" target="-x1Lza4WPiMV8X5rYuyz-97">
          <mxGeometry relative="1" as="geometry" />
        </mxCell>
        <mxCell id="-x1Lza4WPiMV8X5rYuyz-93" value="Data de aquisição" style="ellipse;whiteSpace=wrap;html=1;align=center;" vertex="1" parent="1">
          <mxGeometry x="1408" y="470" width="100" height="40" as="geometry" />
        </mxCell>
        <mxCell id="-x1Lza4WPiMV8X5rYuyz-94" value="Dia" style="ellipse;whiteSpace=wrap;html=1;align=center;" vertex="1" parent="1">
          <mxGeometry x="1408" y="390" width="100" height="40" as="geometry" />
        </mxCell>
        <mxCell id="-x1Lza4WPiMV8X5rYuyz-95" value="Ano" style="ellipse;whiteSpace=wrap;html=1;align=center;" vertex="1" parent="1">
          <mxGeometry x="1408" y="550" width="100" height="40" as="geometry" />
        </mxCell>
        <mxCell id="-x1Lza4WPiMV8X5rYuyz-97" value="Mês" style="ellipse;whiteSpace=wrap;html=1;align=center;" vertex="1" parent="1">
          <mxGeometry x="1278" y="470" width="100" height="40" as="geometry" />
        </mxCell>
        <mxCell id="-x1Lza4WPiMV8X5rYuyz-106" value="" style="edgeStyle=orthogonalEdgeStyle;rounded=0;orthogonalLoop=1;jettySize=auto;html=1;" edge="1" parent="1" source="-x1Lza4WPiMV8X5rYuyz-104" target="-x1Lza4WPiMV8X5rYuyz-105">
          <mxGeometry relative="1" as="geometry" />
        </mxCell>
        <mxCell id="-x1Lza4WPiMV8X5rYuyz-108" value="" style="edgeStyle=orthogonalEdgeStyle;rounded=0;orthogonalLoop=1;jettySize=auto;html=1;" edge="1" parent="1" source="-x1Lza4WPiMV8X5rYuyz-104" target="-x1Lza4WPiMV8X5rYuyz-107">
          <mxGeometry relative="1" as="geometry" />
        </mxCell>
        <mxCell id="-x1Lza4WPiMV8X5rYuyz-111" value="" style="edgeStyle=orthogonalEdgeStyle;rounded=0;orthogonalLoop=1;jettySize=auto;html=1;" edge="1" parent="1" source="-x1Lza4WPiMV8X5rYuyz-104" target="-x1Lza4WPiMV8X5rYuyz-109">
          <mxGeometry relative="1" as="geometry" />
        </mxCell>
        <mxCell id="-x1Lza4WPiMV8X5rYuyz-113" value="" style="edgeStyle=orthogonalEdgeStyle;rounded=0;orthogonalLoop=1;jettySize=auto;html=1;" edge="1" parent="1" source="-x1Lza4WPiMV8X5rYuyz-104" target="-x1Lza4WPiMV8X5rYuyz-112">
          <mxGeometry relative="1" as="geometry" />
        </mxCell>
        <mxCell id="-x1Lza4WPiMV8X5rYuyz-104" value="Móvel" style="whiteSpace=wrap;html=1;align=center;" vertex="1" parent="1">
          <mxGeometry x="1489" y="260" width="100" height="40" as="geometry" />
        </mxCell>
        <mxCell id="-x1Lza4WPiMV8X5rYuyz-105" value="Codigo" style="ellipse;whiteSpace=wrap;html=1;" vertex="1" parent="1">
          <mxGeometry x="1348" y="255" width="110" height="50" as="geometry" />
        </mxCell>
        <mxCell id="-x1Lza4WPiMV8X5rYuyz-107" value="Funcao" style="ellipse;whiteSpace=wrap;html=1;align=center;" vertex="1" parent="1">
          <mxGeometry x="1489" y="330" width="100" height="40" as="geometry" />
        </mxCell>
        <mxCell id="-x1Lza4WPiMV8X5rYuyz-109" value="Localizacao" style="ellipse;whiteSpace=wrap;html=1;align=center;" vertex="1" parent="1">
          <mxGeometry x="1489" y="190" width="100" height="40" as="geometry" />
        </mxCell>
        <mxCell id="-x1Lza4WPiMV8X5rYuyz-112" value="Nome" style="ellipse;whiteSpace=wrap;html=1;align=center;" vertex="1" parent="1">
          <mxGeometry x="1618" y="260" width="100" height="40" as="geometry" />
        </mxCell>
        <mxCell id="-x1Lza4WPiMV8X5rYuyz-114" value="Relationship" style="shape=rhombus;double=1;perimeter=rhombusPerimeter;whiteSpace=wrap;html=1;align=center;" vertex="1" parent="1">
          <mxGeometry x="1558" y="370" width="120" height="60" as="geometry" />
        </mxCell>
        <mxCell id="-x1Lza4WPiMV8X5rYuyz-117" value="" style="endArrow=none;html=1;rounded=0;entryX=0.5;entryY=0;entryDx=0;entryDy=0;" edge="1" parent="1" target="-x1Lza4WPiMV8X5rYuyz-114">
          <mxGeometry relative="1" as="geometry">
            <mxPoint x="1588" y="300" as="sourcePoint" />
            <mxPoint x="1748" y="300" as="targetPoint" />
          </mxGeometry>
        </mxCell>
        <mxCell id="-x1Lza4WPiMV8X5rYuyz-118" value="1" style="resizable=0;html=1;align=right;verticalAlign=bottom;" connectable="0" vertex="1" parent="-x1Lza4WPiMV8X5rYuyz-117">
          <mxGeometry x="1" relative="1" as="geometry" />
        </mxCell>
        <mxCell id="-x1Lza4WPiMV8X5rYuyz-119" value="" style="endArrow=none;html=1;rounded=0;entryX=0;entryY=0;entryDx=0;entryDy=0;" edge="1" parent="1" target="-x1Lza4WPiMV8X5rYuyz-85">
          <mxGeometry relative="1" as="geometry">
            <mxPoint x="1618" y="430" as="sourcePoint" />
            <mxPoint x="1778" y="430" as="targetPoint" />
            <Array as="points">
              <mxPoint x="1578" y="460" />
            </Array>
          </mxGeometry>
        </mxCell>
        <mxCell id="-x1Lza4WPiMV8X5rYuyz-120" value="N" style="resizable=0;html=1;align=right;verticalAlign=bottom;" connectable="0" vertex="1" parent="-x1Lza4WPiMV8X5rYuyz-119">
          <mxGeometry x="1" relative="1" as="geometry" />
        </mxCell>
        <mxCell id="-x1Lza4WPiMV8X5rYuyz-130" value="" style="edgeStyle=orthogonalEdgeStyle;rounded=0;orthogonalLoop=1;jettySize=auto;html=1;" edge="1" parent="1" source="-x1Lza4WPiMV8X5rYuyz-121" target="-x1Lza4WPiMV8X5rYuyz-122">
          <mxGeometry relative="1" as="geometry" />
        </mxCell>
        <mxCell id="-x1Lza4WPiMV8X5rYuyz-121" value="Localizacao" style="whiteSpace=wrap;html=1;align=center;" vertex="1" parent="1">
          <mxGeometry x="1360" y="740" width="100" height="40" as="geometry" />
        </mxCell>
        <mxCell id="-x1Lza4WPiMV8X5rYuyz-122" value="codigo" style="ellipse;whiteSpace=wrap;html=1;align=center;" vertex="1" parent="1">
          <mxGeometry x="1360" y="670" width="100" height="40" as="geometry" />
        </mxCell>
        <mxCell id="-x1Lza4WPiMV8X5rYuyz-123" value="Maquina" style="shape=ext;margin=3;double=1;whiteSpace=wrap;html=1;align=center;" vertex="1" parent="1">
          <mxGeometry x="1598" y="520" width="100" height="40" as="geometry" />
        </mxCell>
        <mxCell id="-x1Lza4WPiMV8X5rYuyz-124" value="Movel" style="shape=ext;margin=3;double=1;whiteSpace=wrap;html=1;align=center;" vertex="1" parent="1">
          <mxGeometry x="1489" y="260" width="100" height="40" as="geometry" />
        </mxCell>
        <mxCell id="-x1Lza4WPiMV8X5rYuyz-125" value="Carga" style="shape=ext;margin=3;double=1;whiteSpace=wrap;html=1;align=center;" vertex="1" parent="1">
          <mxGeometry x="1802" y="260" width="100" height="40" as="geometry" />
        </mxCell>
        <mxCell id="-x1Lza4WPiMV8X5rYuyz-127" value="Tem" style="shape=rhombus;double=1;perimeter=rhombusPerimeter;whiteSpace=wrap;html=1;align=center;" vertex="1" parent="1">
          <mxGeometry x="1792" y="420" width="120" height="60" as="geometry" />
        </mxCell>
        <mxCell id="-x1Lza4WPiMV8X5rYuyz-128" value="" style="endArrow=none;html=1;rounded=0;entryX=1;entryY=0.5;entryDx=0;entryDy=0;exitX=1;exitY=0.5;exitDx=0;exitDy=0;" edge="1" parent="1" source="-x1Lza4WPiMV8X5rYuyz-121" target="-x1Lza4WPiMV8X5rYuyz-127">
          <mxGeometry relative="1" as="geometry">
            <mxPoint x="1912" y="539.5" as="sourcePoint" />
            <mxPoint x="2072" y="539.5" as="targetPoint" />
            <Array as="points">
              <mxPoint x="1850" y="690" />
            </Array>
          </mxGeometry>
        </mxCell>
        <mxCell id="-x1Lza4WPiMV8X5rYuyz-129" value="1" style="resizable=0;html=1;align=right;verticalAlign=bottom;" connectable="0" vertex="1" parent="-x1Lza4WPiMV8X5rYuyz-128">
          <mxGeometry x="1" relative="1" as="geometry" />
        </mxCell>
        <mxCell id="-x1Lza4WPiMV8X5rYuyz-131" value="" style="endArrow=none;html=1;rounded=0;exitX=0;exitY=0.5;exitDx=0;exitDy=0;entryX=1;entryY=0.75;entryDx=0;entryDy=0;" edge="1" parent="1" source="-x1Lza4WPiMV8X5rYuyz-127" target="-x1Lza4WPiMV8X5rYuyz-124">
          <mxGeometry relative="1" as="geometry">
            <mxPoint x="1418" y="390" as="sourcePoint" />
            <mxPoint x="1578" y="390" as="targetPoint" />
          </mxGeometry>
        </mxCell>
        <mxCell id="-x1Lza4WPiMV8X5rYuyz-132" value="1" style="resizable=0;html=1;align=right;verticalAlign=bottom;" connectable="0" vertex="1" parent="-x1Lza4WPiMV8X5rYuyz-131">
          <mxGeometry x="1" relative="1" as="geometry" />
        </mxCell>
        <mxCell id="-x1Lza4WPiMV8X5rYuyz-133" value="" style="endArrow=none;html=1;rounded=0;exitX=0.5;exitY=0;exitDx=0;exitDy=0;entryX=1;entryY=0.5;entryDx=0;entryDy=0;" edge="1" parent="1" source="-x1Lza4WPiMV8X5rYuyz-127" target="-x1Lza4WPiMV8X5rYuyz-125">
          <mxGeometry relative="1" as="geometry">
            <mxPoint x="1768" y="390" as="sourcePoint" />
            <mxPoint x="1578" y="390" as="targetPoint" />
            <Array as="points">
              <mxPoint x="1948" y="340" />
            </Array>
          </mxGeometry>
        </mxCell>
        <mxCell id="-x1Lza4WPiMV8X5rYuyz-134" value="1" style="resizable=0;html=1;align=right;verticalAlign=bottom;" connectable="0" vertex="1" parent="-x1Lza4WPiMV8X5rYuyz-133">
          <mxGeometry x="1" relative="1" as="geometry" />
        </mxCell>
        <mxCell id="-x1Lza4WPiMV8X5rYuyz-135" value="" style="endArrow=none;html=1;rounded=0;exitX=0.5;exitY=1;exitDx=0;exitDy=0;entryX=1;entryY=0;entryDx=0;entryDy=0;" edge="1" parent="1" source="-x1Lza4WPiMV8X5rYuyz-127" target="-x1Lza4WPiMV8X5rYuyz-123">
          <mxGeometry relative="1" as="geometry">
            <mxPoint x="1418" y="390" as="sourcePoint" />
            <mxPoint x="1578" y="390" as="targetPoint" />
          </mxGeometry>
        </mxCell>
        <mxCell id="-x1Lza4WPiMV8X5rYuyz-136" value="1" style="resizable=0;html=1;align=right;verticalAlign=bottom;" connectable="0" vertex="1" parent="-x1Lza4WPiMV8X5rYuyz-135">
          <mxGeometry x="1" relative="1" as="geometry" />
        </mxCell>
        <mxCell id="-x1Lza4WPiMV8X5rYuyz-137" value="Tem" style="shape=rhombus;perimeter=rhombusPerimeter;whiteSpace=wrap;html=1;align=center;" vertex="1" parent="1">
          <mxGeometry x="590" y="400" width="120" height="60" as="geometry" />
        </mxCell>
        <mxCell id="-x1Lza4WPiMV8X5rYuyz-138" value="" style="endArrow=none;html=1;rounded=0;exitX=0.75;exitY=0;exitDx=0;exitDy=0;entryX=0;entryY=0.5;entryDx=0;entryDy=0;" edge="1" parent="1" source="-x1Lza4WPiMV8X5rYuyz-31" target="-x1Lza4WPiMV8X5rYuyz-137">
          <mxGeometry relative="1" as="geometry">
            <mxPoint x="520" y="490" as="sourcePoint" />
            <mxPoint x="680" y="490" as="targetPoint" />
            <Array as="points">
              <mxPoint x="500" y="480" />
            </Array>
          </mxGeometry>
        </mxCell>
        <mxCell id="-x1Lza4WPiMV8X5rYuyz-139" value="1" style="resizable=0;html=1;align=right;verticalAlign=bottom;" connectable="0" vertex="1" parent="-x1Lza4WPiMV8X5rYuyz-138">
          <mxGeometry x="1" relative="1" as="geometry" />
        </mxCell>
        <mxCell id="-x1Lza4WPiMV8X5rYuyz-140" value="" style="endArrow=none;html=1;rounded=0;exitX=0.5;exitY=0;exitDx=0;exitDy=0;entryX=0;entryY=1;entryDx=0;entryDy=0;" edge="1" parent="1" source="-x1Lza4WPiMV8X5rYuyz-137" target="-x1Lza4WPiMV8X5rYuyz-16">
          <mxGeometry relative="1" as="geometry">
            <mxPoint x="520" y="490" as="sourcePoint" />
            <mxPoint x="680" y="490" as="targetPoint" />
            <Array as="points">
              <mxPoint x="670" y="290" />
            </Array>
          </mxGeometry>
        </mxCell>
        <mxCell id="-x1Lza4WPiMV8X5rYuyz-141" value="N" style="resizable=0;html=1;align=right;verticalAlign=bottom;" connectable="0" vertex="1" parent="-x1Lza4WPiMV8X5rYuyz-140">
          <mxGeometry x="1" relative="1" as="geometry" />
        </mxCell>
        <mxCell id="-x1Lza4WPiMV8X5rYuyz-142" value="Matricula" style="whiteSpace=wrap;html=1;align=center;" vertex="1" parent="1">
          <mxGeometry x="450" y="-40" width="100" height="40" as="geometry" />
        </mxCell>
        <mxCell id="-x1Lza4WPiMV8X5rYuyz-143" value="Tem" style="shape=rhombus;perimeter=rhombusPerimeter;whiteSpace=wrap;html=1;align=center;" vertex="1" parent="1">
          <mxGeometry x="550" y="60" width="120" height="60" as="geometry" />
        </mxCell>
        <mxCell id="-x1Lza4WPiMV8X5rYuyz-144" value="" style="endArrow=none;html=1;rounded=0;entryX=0.442;entryY=0.033;entryDx=0;entryDy=0;entryPerimeter=0;" edge="1" parent="1" target="-x1Lza4WPiMV8X5rYuyz-143">
          <mxGeometry relative="1" as="geometry">
            <mxPoint x="520" as="sourcePoint" />
            <mxPoint x="680" as="targetPoint" />
          </mxGeometry>
        </mxCell>
        <mxCell id="-x1Lza4WPiMV8X5rYuyz-145" value="1" style="resizable=0;html=1;align=right;verticalAlign=bottom;" connectable="0" vertex="1" parent="-x1Lza4WPiMV8X5rYuyz-144">
          <mxGeometry x="1" relative="1" as="geometry" />
        </mxCell>
        <mxCell id="-x1Lza4WPiMV8X5rYuyz-146" value="" style="endArrow=none;html=1;rounded=0;" edge="1" parent="1">
          <mxGeometry relative="1" as="geometry">
            <mxPoint x="610" y="120" as="sourcePoint" />
            <mxPoint x="770" y="210" as="targetPoint" />
            <Array as="points">
              <mxPoint x="650" y="120" />
            </Array>
          </mxGeometry>
        </mxCell>
        <mxCell id="-x1Lza4WPiMV8X5rYuyz-147" value="1" style="resizable=0;html=1;align=right;verticalAlign=bottom;" connectable="0" vertex="1" parent="-x1Lza4WPiMV8X5rYuyz-146">
          <mxGeometry x="1" relative="1" as="geometry" />
        </mxCell>
        <mxCell id="-x1Lza4WPiMV8X5rYuyz-148" value="Depende de" style="shape=rhombus;double=1;perimeter=rhombusPerimeter;whiteSpace=wrap;html=1;align=center;" vertex="1" parent="1">
          <mxGeometry x="590" y="-130" width="120" height="60" as="geometry" />
        </mxCell>
        <mxCell id="-x1Lza4WPiMV8X5rYuyz-153" value="" style="shape=link;html=1;rounded=0;exitX=0;exitY=0.5;exitDx=0;exitDy=0;entryX=0.59;entryY=-0.05;entryDx=0;entryDy=0;entryPerimeter=0;" edge="1" parent="1" source="-x1Lza4WPiMV8X5rYuyz-148" target="-x1Lza4WPiMV8X5rYuyz-142">
          <mxGeometry relative="1" as="geometry">
            <mxPoint x="960" y="190" as="sourcePoint" />
            <mxPoint x="1120" y="190" as="targetPoint" />
          </mxGeometry>
        </mxCell>
        <mxCell id="-x1Lza4WPiMV8X5rYuyz-154" value="N" style="resizable=0;html=1;align=right;verticalAlign=bottom;" connectable="0" vertex="1" parent="-x1Lza4WPiMV8X5rYuyz-153">
          <mxGeometry x="1" relative="1" as="geometry" />
        </mxCell>
        <mxCell id="-x1Lza4WPiMV8X5rYuyz-155" value="" style="endArrow=none;html=1;rounded=0;exitX=0;exitY=0;exitDx=0;exitDy=0;entryX=1;entryY=0.5;entryDx=0;entryDy=0;" edge="1" parent="1" source="-x1Lza4WPiMV8X5rYuyz-64" target="-x1Lza4WPiMV8X5rYuyz-148">
          <mxGeometry relative="1" as="geometry">
            <mxPoint x="960" y="190" as="sourcePoint" />
            <mxPoint x="1120" y="190" as="targetPoint" />
          </mxGeometry>
        </mxCell>
        <mxCell id="-x1Lza4WPiMV8X5rYuyz-156" value="1" style="resizable=0;html=1;align=right;verticalAlign=bottom;" connectable="0" vertex="1" parent="-x1Lza4WPiMV8X5rYuyz-155">
          <mxGeometry x="1" relative="1" as="geometry">
            <mxPoint x="-115" as="offset" />
          </mxGeometry>
        </mxCell>
        <mxCell id="-x1Lza4WPiMV8X5rYuyz-166" style="edgeStyle=orthogonalEdgeStyle;rounded=0;orthogonalLoop=1;jettySize=auto;html=1;" edge="1" parent="1" source="-x1Lza4WPiMV8X5rYuyz-157">
          <mxGeometry relative="1" as="geometry">
            <mxPoint x="380" y="-40" as="targetPoint" />
          </mxGeometry>
        </mxCell>
        <mxCell id="-x1Lza4WPiMV8X5rYuyz-167" style="edgeStyle=orthogonalEdgeStyle;rounded=0;orthogonalLoop=1;jettySize=auto;html=1;entryX=0.67;entryY=1.1;entryDx=0;entryDy=0;entryPerimeter=0;" edge="1" parent="1" source="-x1Lza4WPiMV8X5rYuyz-157" target="-x1Lza4WPiMV8X5rYuyz-158">
          <mxGeometry relative="1" as="geometry" />
        </mxCell>
        <mxCell id="-x1Lza4WPiMV8X5rYuyz-157" value="Matricula" style="shape=ext;margin=3;double=1;whiteSpace=wrap;html=1;align=center;" vertex="1" parent="1">
          <mxGeometry x="450" y="-40" width="100" height="40" as="geometry" />
        </mxCell>
        <mxCell id="-x1Lza4WPiMV8X5rYuyz-158" value="Codigo" style="ellipse;whiteSpace=wrap;html=1;align=center;" vertex="1" parent="1">
          <mxGeometry x="390" y="-110" width="100" height="40" as="geometry" />
        </mxCell>
        <mxCell id="-x1Lza4WPiMV8X5rYuyz-159" value="" style="edgeStyle=orthogonalEdgeStyle;rounded=0;orthogonalLoop=1;jettySize=auto;html=1;" edge="1" parent="1" source="-x1Lza4WPiMV8X5rYuyz-162" target="-x1Lza4WPiMV8X5rYuyz-163">
          <mxGeometry relative="1" as="geometry" />
        </mxCell>
        <mxCell id="-x1Lza4WPiMV8X5rYuyz-160" value="" style="edgeStyle=orthogonalEdgeStyle;rounded=0;orthogonalLoop=1;jettySize=auto;html=1;" edge="1" parent="1" source="-x1Lza4WPiMV8X5rYuyz-162" target="-x1Lza4WPiMV8X5rYuyz-164">
          <mxGeometry relative="1" as="geometry" />
        </mxCell>
        <mxCell id="-x1Lza4WPiMV8X5rYuyz-161" value="" style="edgeStyle=orthogonalEdgeStyle;rounded=0;orthogonalLoop=1;jettySize=auto;html=1;" edge="1" parent="1" source="-x1Lza4WPiMV8X5rYuyz-162" target="-x1Lza4WPiMV8X5rYuyz-165">
          <mxGeometry relative="1" as="geometry" />
        </mxCell>
        <mxCell id="-x1Lza4WPiMV8X5rYuyz-162" value="Data de vigência" style="ellipse;whiteSpace=wrap;html=1;align=center;" vertex="1" parent="1">
          <mxGeometry x="275" y="-60" width="100" height="40" as="geometry" />
        </mxCell>
        <mxCell id="-x1Lza4WPiMV8X5rYuyz-163" value="Dia" style="ellipse;whiteSpace=wrap;html=1;align=center;" vertex="1" parent="1">
          <mxGeometry x="275" y="-140" width="100" height="40" as="geometry" />
        </mxCell>
        <mxCell id="-x1Lza4WPiMV8X5rYuyz-164" value="Ano" style="ellipse;whiteSpace=wrap;html=1;align=center;" vertex="1" parent="1">
          <mxGeometry x="275" y="20" width="100" height="40" as="geometry" />
        </mxCell>
        <mxCell id="-x1Lza4WPiMV8X5rYuyz-165" value="Mês" style="ellipse;whiteSpace=wrap;html=1;align=center;" vertex="1" parent="1">
          <mxGeometry x="145" y="-60" width="100" height="40" as="geometry" />
        </mxCell>
        <mxCell id="-x1Lza4WPiMV8X5rYuyz-171" value="" style="edgeStyle=orthogonalEdgeStyle;rounded=0;orthogonalLoop=1;jettySize=auto;html=1;" edge="1" parent="1" source="-x1Lza4WPiMV8X5rYuyz-169" target="-x1Lza4WPiMV8X5rYuyz-170">
          <mxGeometry relative="1" as="geometry" />
        </mxCell>
        <mxCell id="-x1Lza4WPiMV8X5rYuyz-180" value="" style="edgeStyle=orthogonalEdgeStyle;rounded=0;orthogonalLoop=1;jettySize=auto;html=1;" edge="1" parent="1" source="-x1Lza4WPiMV8X5rYuyz-169" target="-x1Lza4WPiMV8X5rYuyz-179">
          <mxGeometry relative="1" as="geometry" />
        </mxCell>
        <mxCell id="-x1Lza4WPiMV8X5rYuyz-188" value="" style="edgeStyle=orthogonalEdgeStyle;rounded=0;orthogonalLoop=1;jettySize=auto;html=1;" edge="1" parent="1" source="-x1Lza4WPiMV8X5rYuyz-169" target="-x1Lza4WPiMV8X5rYuyz-184">
          <mxGeometry relative="1" as="geometry" />
        </mxCell>
        <mxCell id="-x1Lza4WPiMV8X5rYuyz-190" style="edgeStyle=orthogonalEdgeStyle;rounded=0;orthogonalLoop=1;jettySize=auto;html=1;entryX=0.99;entryY=0.775;entryDx=0;entryDy=0;entryPerimeter=0;" edge="1" parent="1" source="-x1Lza4WPiMV8X5rYuyz-169" target="-x1Lza4WPiMV8X5rYuyz-189">
          <mxGeometry relative="1" as="geometry" />
        </mxCell>
        <mxCell id="-x1Lza4WPiMV8X5rYuyz-169" value="Pagamento" style="shape=ext;margin=3;double=1;whiteSpace=wrap;html=1;align=center;" vertex="1" parent="1">
          <mxGeometry x="450" y="-290" width="100" height="40" as="geometry" />
        </mxCell>
        <mxCell id="-x1Lza4WPiMV8X5rYuyz-170" value="Codigo" style="ellipse;whiteSpace=wrap;html=1;align=center;" vertex="1" parent="1">
          <mxGeometry x="314" y="-290" width="100" height="40" as="geometry" />
        </mxCell>
        <mxCell id="-x1Lza4WPiMV8X5rYuyz-173" value="Depende de" style="shape=rhombus;double=1;perimeter=rhombusPerimeter;whiteSpace=wrap;html=1;align=center;" vertex="1" parent="1">
          <mxGeometry x="380" y="-210" width="120" height="60" as="geometry" />
        </mxCell>
        <mxCell id="-x1Lza4WPiMV8X5rYuyz-175" value="" style="shape=link;html=1;rounded=0;exitX=0.5;exitY=0;exitDx=0;exitDy=0;entryX=0.5;entryY=1;entryDx=0;entryDy=0;" edge="1" parent="1" source="-x1Lza4WPiMV8X5rYuyz-173" target="-x1Lza4WPiMV8X5rYuyz-169">
          <mxGeometry relative="1" as="geometry">
            <mxPoint x="960" y="-110" as="sourcePoint" />
            <mxPoint x="1120" y="-110" as="targetPoint" />
          </mxGeometry>
        </mxCell>
        <mxCell id="-x1Lza4WPiMV8X5rYuyz-176" value="N" style="resizable=0;html=1;align=right;verticalAlign=bottom;" connectable="0" vertex="1" parent="-x1Lza4WPiMV8X5rYuyz-175">
          <mxGeometry x="1" relative="1" as="geometry" />
        </mxCell>
        <mxCell id="-x1Lza4WPiMV8X5rYuyz-177" value="" style="shape=link;html=1;rounded=0;exitX=0.5;exitY=1;exitDx=0;exitDy=0;entryX=0.5;entryY=0;entryDx=0;entryDy=0;" edge="1" parent="1" source="-x1Lza4WPiMV8X5rYuyz-173" target="-x1Lza4WPiMV8X5rYuyz-157">
          <mxGeometry relative="1" as="geometry">
            <mxPoint x="960" y="-110" as="sourcePoint" />
            <mxPoint x="1120" y="-110" as="targetPoint" />
            <Array as="points">
              <mxPoint x="500" y="-110" />
            </Array>
          </mxGeometry>
        </mxCell>
        <mxCell id="-x1Lza4WPiMV8X5rYuyz-178" value="N" style="resizable=0;html=1;align=right;verticalAlign=bottom;" connectable="0" vertex="1" parent="-x1Lza4WPiMV8X5rYuyz-177">
          <mxGeometry x="1" relative="1" as="geometry" />
        </mxCell>
        <mxCell id="-x1Lza4WPiMV8X5rYuyz-179" value="Valor" style="ellipse;whiteSpace=wrap;html=1;align=center;" vertex="1" parent="1">
          <mxGeometry x="450" y="-380" width="100" height="40" as="geometry" />
        </mxCell>
        <mxCell id="-x1Lza4WPiMV8X5rYuyz-181" value="" style="edgeStyle=orthogonalEdgeStyle;rounded=0;orthogonalLoop=1;jettySize=auto;html=1;" edge="1" parent="1" source="-x1Lza4WPiMV8X5rYuyz-184" target="-x1Lza4WPiMV8X5rYuyz-185">
          <mxGeometry relative="1" as="geometry" />
        </mxCell>
        <mxCell id="-x1Lza4WPiMV8X5rYuyz-182" value="" style="edgeStyle=orthogonalEdgeStyle;rounded=0;orthogonalLoop=1;jettySize=auto;html=1;" edge="1" parent="1" source="-x1Lza4WPiMV8X5rYuyz-184" target="-x1Lza4WPiMV8X5rYuyz-186">
          <mxGeometry relative="1" as="geometry" />
        </mxCell>
        <mxCell id="-x1Lza4WPiMV8X5rYuyz-183" value="" style="edgeStyle=orthogonalEdgeStyle;rounded=0;orthogonalLoop=1;jettySize=auto;html=1;" edge="1" parent="1" source="-x1Lza4WPiMV8X5rYuyz-184" target="-x1Lza4WPiMV8X5rYuyz-187">
          <mxGeometry relative="1" as="geometry" />
        </mxCell>
        <mxCell id="-x1Lza4WPiMV8X5rYuyz-184" value="Data pagamento" style="ellipse;whiteSpace=wrap;html=1;align=center;" vertex="1" parent="1">
          <mxGeometry x="575" y="-290" width="100" height="40" as="geometry" />
        </mxCell>
        <mxCell id="-x1Lza4WPiMV8X5rYuyz-185" value="Dia" style="ellipse;whiteSpace=wrap;html=1;align=center;" vertex="1" parent="1">
          <mxGeometry x="575" y="-370" width="100" height="40" as="geometry" />
        </mxCell>
        <mxCell id="-x1Lza4WPiMV8X5rYuyz-186" value="Ano" style="ellipse;whiteSpace=wrap;html=1;align=center;" vertex="1" parent="1">
          <mxGeometry x="575" y="-210" width="100" height="40" as="geometry" />
        </mxCell>
        <mxCell id="-x1Lza4WPiMV8X5rYuyz-187" value="Mês" style="ellipse;whiteSpace=wrap;html=1;align=center;" vertex="1" parent="1">
          <mxGeometry x="725" y="-290" width="100" height="40" as="geometry" />
        </mxCell>
        <mxCell id="-x1Lza4WPiMV8X5rYuyz-189" value="Historico" style="ellipse;whiteSpace=wrap;html=1;align=center;" vertex="1" parent="1">
          <mxGeometry x="320" y="-360" width="100" height="40" as="geometry" />
        </mxCell>
        <mxCell id="-x1Lza4WPiMV8X5rYuyz-198" style="edgeStyle=orthogonalEdgeStyle;rounded=0;orthogonalLoop=1;jettySize=auto;html=1;entryX=0;entryY=1;entryDx=0;entryDy=0;" edge="1" parent="1" source="-x1Lza4WPiMV8X5rYuyz-191" target="-x1Lza4WPiMV8X5rYuyz-197">
          <mxGeometry relative="1" as="geometry" />
        </mxCell>
        <mxCell id="-x1Lza4WPiMV8X5rYuyz-200" value="" style="edgeStyle=orthogonalEdgeStyle;rounded=0;orthogonalLoop=1;jettySize=auto;html=1;" edge="1" parent="1" source="-x1Lza4WPiMV8X5rYuyz-191" target="-x1Lza4WPiMV8X5rYuyz-199">
          <mxGeometry relative="1" as="geometry" />
        </mxCell>
        <mxCell id="-x1Lza4WPiMV8X5rYuyz-202" style="edgeStyle=orthogonalEdgeStyle;rounded=0;orthogonalLoop=1;jettySize=auto;html=1;entryX=0.08;entryY=0.175;entryDx=0;entryDy=0;entryPerimeter=0;" edge="1" parent="1" source="-x1Lza4WPiMV8X5rYuyz-191" target="-x1Lza4WPiMV8X5rYuyz-201">
          <mxGeometry relative="1" as="geometry" />
        </mxCell>
        <mxCell id="-x1Lza4WPiMV8X5rYuyz-219" style="edgeStyle=orthogonalEdgeStyle;rounded=0;orthogonalLoop=1;jettySize=auto;html=1;entryX=0.5;entryY=0;entryDx=0;entryDy=0;" edge="1" parent="1" source="-x1Lza4WPiMV8X5rYuyz-191" target="-x1Lza4WPiMV8X5rYuyz-215">
          <mxGeometry relative="1" as="geometry" />
        </mxCell>
        <mxCell id="-x1Lza4WPiMV8X5rYuyz-221" style="edgeStyle=orthogonalEdgeStyle;rounded=0;orthogonalLoop=1;jettySize=auto;html=1;entryX=1;entryY=0.5;entryDx=0;entryDy=0;" edge="1" parent="1" source="-x1Lza4WPiMV8X5rYuyz-191" target="-x1Lza4WPiMV8X5rYuyz-220">
          <mxGeometry relative="1" as="geometry" />
        </mxCell>
        <mxCell id="-x1Lza4WPiMV8X5rYuyz-223" style="edgeStyle=orthogonalEdgeStyle;rounded=0;orthogonalLoop=1;jettySize=auto;html=1;entryX=1;entryY=1;entryDx=0;entryDy=0;" edge="1" parent="1" source="-x1Lza4WPiMV8X5rYuyz-191" target="-x1Lza4WPiMV8X5rYuyz-222">
          <mxGeometry relative="1" as="geometry" />
        </mxCell>
        <mxCell id="-x1Lza4WPiMV8X5rYuyz-225" style="edgeStyle=orthogonalEdgeStyle;rounded=0;orthogonalLoop=1;jettySize=auto;html=1;entryX=1.01;entryY=0.7;entryDx=0;entryDy=0;entryPerimeter=0;" edge="1" parent="1" source="-x1Lza4WPiMV8X5rYuyz-191" target="-x1Lza4WPiMV8X5rYuyz-224">
          <mxGeometry relative="1" as="geometry" />
        </mxCell>
        <mxCell id="-x1Lza4WPiMV8X5rYuyz-227" style="edgeStyle=orthogonalEdgeStyle;rounded=0;orthogonalLoop=1;jettySize=auto;html=1;entryX=0.69;entryY=-0.025;entryDx=0;entryDy=0;entryPerimeter=0;" edge="1" parent="1" source="-x1Lza4WPiMV8X5rYuyz-191" target="-x1Lza4WPiMV8X5rYuyz-226">
          <mxGeometry relative="1" as="geometry" />
        </mxCell>
        <mxCell id="-x1Lza4WPiMV8X5rYuyz-191" value="Avaliação Física" style="shape=ext;margin=3;double=1;whiteSpace=wrap;html=1;align=center;" vertex="1" parent="1">
          <mxGeometry x="880" y="700" width="100" height="40" as="geometry" />
        </mxCell>
        <mxCell id="-x1Lza4WPiMV8X5rYuyz-192" value="Relationship" style="shape=rhombus;double=1;perimeter=rhombusPerimeter;whiteSpace=wrap;html=1;align=center;" vertex="1" parent="1">
          <mxGeometry x="810" y="480" width="120" height="60" as="geometry" />
        </mxCell>
        <mxCell id="-x1Lza4WPiMV8X5rYuyz-193" value="" style="shape=link;html=1;rounded=0;exitX=0.5;exitY=1;exitDx=0;exitDy=0;entryX=0.32;entryY=-0.125;entryDx=0;entryDy=0;entryPerimeter=0;" edge="1" parent="1" source="-x1Lza4WPiMV8X5rYuyz-192" target="-x1Lza4WPiMV8X5rYuyz-191">
          <mxGeometry relative="1" as="geometry">
            <mxPoint x="960" y="680" as="sourcePoint" />
            <mxPoint x="1120" y="680" as="targetPoint" />
          </mxGeometry>
        </mxCell>
        <mxCell id="-x1Lza4WPiMV8X5rYuyz-194" value="N" style="resizable=0;html=1;align=right;verticalAlign=bottom;" connectable="0" vertex="1" parent="-x1Lza4WPiMV8X5rYuyz-193">
          <mxGeometry x="1" relative="1" as="geometry" />
        </mxCell>
        <mxCell id="-x1Lza4WPiMV8X5rYuyz-195" value="" style="shape=link;html=1;rounded=0;exitX=0.5;exitY=1;exitDx=0;exitDy=0;entryX=0.5;entryY=0;entryDx=0;entryDy=0;" edge="1" parent="1" target="-x1Lza4WPiMV8X5rYuyz-192">
          <mxGeometry relative="1" as="geometry">
            <mxPoint x="819" y="260" as="sourcePoint" />
            <mxPoint x="861" y="415" as="targetPoint" />
            <Array as="points">
              <mxPoint x="770" y="310" />
            </Array>
          </mxGeometry>
        </mxCell>
        <mxCell id="-x1Lza4WPiMV8X5rYuyz-196" value="N" style="resizable=0;html=1;align=right;verticalAlign=bottom;" connectable="0" vertex="1" parent="-x1Lza4WPiMV8X5rYuyz-195">
          <mxGeometry x="1" relative="1" as="geometry" />
        </mxCell>
        <mxCell id="-x1Lza4WPiMV8X5rYuyz-197" value="Dobras" style="ellipse;whiteSpace=wrap;html=1;align=center;" vertex="1" parent="1">
          <mxGeometry x="940" y="640" width="100" height="40" as="geometry" />
        </mxCell>
        <mxCell id="-x1Lza4WPiMV8X5rYuyz-199" value="Codigo" style="ellipse;whiteSpace=wrap;html=1;align=center;" vertex="1" parent="1">
          <mxGeometry x="1010" y="700" width="100" height="40" as="geometry" />
        </mxCell>
        <mxCell id="-x1Lza4WPiMV8X5rYuyz-201" value="Circunferencia do abdomen" style="ellipse;whiteSpace=wrap;html=1;align=center;" vertex="1" parent="1">
          <mxGeometry x="980" y="780" width="100" height="40" as="geometry" />
        </mxCell>
        <mxCell id="-x1Lza4WPiMV8X5rYuyz-203" value="Avaliador" style="shape=rhombus;double=1;perimeter=rhombusPerimeter;whiteSpace=wrap;html=1;align=center;" vertex="1" parent="1">
          <mxGeometry x="555" y="700" width="120" height="60" as="geometry" />
        </mxCell>
        <mxCell id="-x1Lza4WPiMV8X5rYuyz-204" value="" style="shape=link;html=1;rounded=0;entryX=0;entryY=0.5;entryDx=0;entryDy=0;" edge="1" parent="1" target="-x1Lza4WPiMV8X5rYuyz-191">
          <mxGeometry relative="1" as="geometry">
            <mxPoint x="667" y="729.5" as="sourcePoint" />
            <mxPoint x="827" y="729.5" as="targetPoint" />
          </mxGeometry>
        </mxCell>
        <mxCell id="-x1Lza4WPiMV8X5rYuyz-205" value="N" style="resizable=0;html=1;align=right;verticalAlign=bottom;" connectable="0" vertex="1" parent="-x1Lza4WPiMV8X5rYuyz-204">
          <mxGeometry x="1" relative="1" as="geometry" />
        </mxCell>
        <mxCell id="-x1Lza4WPiMV8X5rYuyz-210" value="" style="endArrow=none;html=1;rounded=0;exitX=0;exitY=0.5;exitDx=0;exitDy=0;entryX=0.92;entryY=1.075;entryDx=0;entryDy=0;entryPerimeter=0;" edge="1" parent="1" source="-x1Lza4WPiMV8X5rYuyz-203" target="-x1Lza4WPiMV8X5rYuyz-31">
          <mxGeometry relative="1" as="geometry">
            <mxPoint x="960" y="570" as="sourcePoint" />
            <mxPoint x="1120" y="570" as="targetPoint" />
          </mxGeometry>
        </mxCell>
        <mxCell id="-x1Lza4WPiMV8X5rYuyz-211" value="1" style="resizable=0;html=1;align=right;verticalAlign=bottom;" connectable="0" vertex="1" parent="-x1Lza4WPiMV8X5rYuyz-210">
          <mxGeometry x="1" relative="1" as="geometry" />
        </mxCell>
        <mxCell id="-x1Lza4WPiMV8X5rYuyz-212" value="" style="edgeStyle=orthogonalEdgeStyle;rounded=0;orthogonalLoop=1;jettySize=auto;html=1;" edge="1" parent="1" source="-x1Lza4WPiMV8X5rYuyz-215" target="-x1Lza4WPiMV8X5rYuyz-216">
          <mxGeometry relative="1" as="geometry" />
        </mxCell>
        <mxCell id="-x1Lza4WPiMV8X5rYuyz-213" value="" style="edgeStyle=orthogonalEdgeStyle;rounded=0;orthogonalLoop=1;jettySize=auto;html=1;" edge="1" parent="1" source="-x1Lza4WPiMV8X5rYuyz-215" target="-x1Lza4WPiMV8X5rYuyz-217">
          <mxGeometry relative="1" as="geometry" />
        </mxCell>
        <mxCell id="-x1Lza4WPiMV8X5rYuyz-214" value="" style="edgeStyle=orthogonalEdgeStyle;rounded=0;orthogonalLoop=1;jettySize=auto;html=1;" edge="1" parent="1" source="-x1Lza4WPiMV8X5rYuyz-215" target="-x1Lza4WPiMV8X5rYuyz-218">
          <mxGeometry relative="1" as="geometry" />
        </mxCell>
        <mxCell id="-x1Lza4WPiMV8X5rYuyz-215" value="Data de avaliação" style="ellipse;whiteSpace=wrap;html=1;align=center;" vertex="1" parent="1">
          <mxGeometry x="840" y="830" width="100" height="40" as="geometry" />
        </mxCell>
        <mxCell id="-x1Lza4WPiMV8X5rYuyz-216" value="Dia" style="ellipse;whiteSpace=wrap;html=1;align=center;" vertex="1" parent="1">
          <mxGeometry x="725" y="820" width="100" height="40" as="geometry" />
        </mxCell>
        <mxCell id="-x1Lza4WPiMV8X5rYuyz-217" value="Ano" style="ellipse;whiteSpace=wrap;html=1;align=center;" vertex="1" parent="1">
          <mxGeometry x="990" y="830" width="100" height="40" as="geometry" />
        </mxCell>
        <mxCell id="-x1Lza4WPiMV8X5rYuyz-218" value="Mês" style="ellipse;whiteSpace=wrap;html=1;align=center;" vertex="1" parent="1">
          <mxGeometry x="840" y="890" width="100" height="40" as="geometry" />
        </mxCell>
        <mxCell id="-x1Lza4WPiMV8X5rYuyz-220" value="Frequencia cardiaca" style="ellipse;whiteSpace=wrap;html=1;align=center;" vertex="1" parent="1">
          <mxGeometry x="750" y="760" width="100" height="40" as="geometry" />
        </mxCell>
        <mxCell id="-x1Lza4WPiMV8X5rYuyz-222" value="peso" style="ellipse;whiteSpace=wrap;html=1;align=center;" vertex="1" parent="1">
          <mxGeometry x="780" y="620" width="100" height="40" as="geometry" />
        </mxCell>
        <mxCell id="-x1Lza4WPiMV8X5rYuyz-224" value="altura" style="ellipse;whiteSpace=wrap;html=1;align=center;" vertex="1" parent="1">
          <mxGeometry x="720" y="660" width="100" height="40" as="geometry" />
        </mxCell>
        <mxCell id="-x1Lza4WPiMV8X5rYuyz-226" value="IMC" style="ellipse;whiteSpace=wrap;html=1;align=center;dashed=1;" vertex="1" parent="1">
          <mxGeometry x="625" y="780" width="100" height="40" as="geometry" />
        </mxCell>
        <mxCell id="-x1Lza4WPiMV8X5rYuyz-230" value="" style="edgeStyle=orthogonalEdgeStyle;rounded=0;orthogonalLoop=1;jettySize=auto;html=1;" edge="1" parent="1" source="-x1Lza4WPiMV8X5rYuyz-228" target="-x1Lza4WPiMV8X5rYuyz-229">
          <mxGeometry relative="1" as="geometry" />
        </mxCell>
        <mxCell id="-x1Lza4WPiMV8X5rYuyz-249" value="" style="edgeStyle=orthogonalEdgeStyle;rounded=0;orthogonalLoop=1;jettySize=auto;html=1;" edge="1" parent="1" source="-x1Lza4WPiMV8X5rYuyz-228" target="-x1Lza4WPiMV8X5rYuyz-248">
          <mxGeometry relative="1" as="geometry" />
        </mxCell>
        <mxCell id="-x1Lza4WPiMV8X5rYuyz-228" value="Ficha de Treino" style="shape=ext;margin=3;double=1;whiteSpace=wrap;html=1;align=center;" vertex="1" parent="1">
          <mxGeometry x="1080" y="420" width="100" height="40" as="geometry" />
        </mxCell>
        <mxCell id="-x1Lza4WPiMV8X5rYuyz-229" value="Codigo" style="ellipse;whiteSpace=wrap;html=1;align=center;fontStyle=4;" vertex="1" parent="1">
          <mxGeometry x="1130" y="340" width="100" height="40" as="geometry" />
        </mxCell>
        <mxCell id="-x1Lza4WPiMV8X5rYuyz-232" value="Depende de" style="shape=rhombus;double=1;perimeter=rhombusPerimeter;whiteSpace=wrap;html=1;align=center;" vertex="1" parent="1">
          <mxGeometry x="1060" y="260" width="120" height="60" as="geometry" />
        </mxCell>
        <mxCell id="-x1Lza4WPiMV8X5rYuyz-235" value="Depende de" style="shape=rhombus;double=1;perimeter=rhombusPerimeter;whiteSpace=wrap;html=1;align=center;" vertex="1" parent="1">
          <mxGeometry x="910" y="410" width="120" height="60" as="geometry" />
        </mxCell>
        <mxCell id="-x1Lza4WPiMV8X5rYuyz-238" value="" style="endArrow=none;html=1;rounded=0;entryX=1;entryY=0;entryDx=0;entryDy=0;exitX=0;exitY=0.5;exitDx=0;exitDy=0;" edge="1" parent="1" source="-x1Lza4WPiMV8X5rYuyz-235" target="-x1Lza4WPiMV8X5rYuyz-31">
          <mxGeometry relative="1" as="geometry">
            <mxPoint x="1070" y="520" as="sourcePoint" />
            <mxPoint x="1230" y="520" as="targetPoint" />
          </mxGeometry>
        </mxCell>
        <mxCell id="-x1Lza4WPiMV8X5rYuyz-239" value="1" style="resizable=0;html=1;align=right;verticalAlign=bottom;" connectable="0" vertex="1" parent="-x1Lza4WPiMV8X5rYuyz-238">
          <mxGeometry x="1" relative="1" as="geometry" />
        </mxCell>
        <mxCell id="-x1Lza4WPiMV8X5rYuyz-240" value="" style="shape=link;html=1;rounded=0;entryX=0;entryY=0.5;entryDx=0;entryDy=0;" edge="1" parent="1" target="-x1Lza4WPiMV8X5rYuyz-228">
          <mxGeometry relative="1" as="geometry">
            <mxPoint x="1030" y="440" as="sourcePoint" />
            <mxPoint x="1070" y="440" as="targetPoint" />
          </mxGeometry>
        </mxCell>
        <mxCell id="-x1Lza4WPiMV8X5rYuyz-241" value="N" style="resizable=0;html=1;align=right;verticalAlign=bottom;" connectable="0" vertex="1" parent="-x1Lza4WPiMV8X5rYuyz-240">
          <mxGeometry x="1" relative="1" as="geometry" />
        </mxCell>
        <mxCell id="-x1Lza4WPiMV8X5rYuyz-242" value="" style="shape=link;html=1;rounded=0;entryX=0.36;entryY=-0.1;entryDx=0;entryDy=0;entryPerimeter=0;" edge="1" parent="1" target="-x1Lza4WPiMV8X5rYuyz-228">
          <mxGeometry relative="1" as="geometry">
            <mxPoint x="1120" y="310" as="sourcePoint" />
            <mxPoint x="1280" y="310" as="targetPoint" />
          </mxGeometry>
        </mxCell>
        <mxCell id="-x1Lza4WPiMV8X5rYuyz-243" value="1" style="resizable=0;html=1;align=right;verticalAlign=bottom;" connectable="0" vertex="1" parent="-x1Lza4WPiMV8X5rYuyz-242">
          <mxGeometry x="1" relative="1" as="geometry" />
        </mxCell>
        <mxCell id="-x1Lza4WPiMV8X5rYuyz-246" value="" style="shape=link;html=1;rounded=0;entryX=0;entryY=0.5;entryDx=0;entryDy=0;" edge="1" parent="1" target="-x1Lza4WPiMV8X5rYuyz-232">
          <mxGeometry relative="1" as="geometry">
            <mxPoint x="890" y="260" as="sourcePoint" />
            <mxPoint x="1050" y="260" as="targetPoint" />
          </mxGeometry>
        </mxCell>
        <mxCell id="-x1Lza4WPiMV8X5rYuyz-247" value="1" style="resizable=0;html=1;align=right;verticalAlign=bottom;" connectable="0" vertex="1" parent="-x1Lza4WPiMV8X5rYuyz-246">
          <mxGeometry x="1" relative="1" as="geometry" />
        </mxCell>
        <mxCell id="-x1Lza4WPiMV8X5rYuyz-248" value="Treino" style="ellipse;whiteSpace=wrap;html=1;align=center;" vertex="1" parent="1">
          <mxGeometry x="1070" y="490" width="100" height="40" as="geometry" />
        </mxCell>
        <mxCell id="-x1Lza4WPiMV8X5rYuyz-250" value="Modalidade" style="whiteSpace=wrap;html=1;align=center;" vertex="1" parent="1">
          <mxGeometry x="1100" y="80" width="100" height="40" as="geometry" />
        </mxCell>
        <mxCell id="-x1Lza4WPiMV8X5rYuyz-251" value="Codigo" style="ellipse;whiteSpace=wrap;html=1;align=center;fontStyle=4;" vertex="1" parent="1">
          <mxGeometry x="1100" y="-10" width="100" height="40" as="geometry" />
        </mxCell>
        <mxCell id="-x1Lza4WPiMV8X5rYuyz-252" value="Depende de" style="shape=rhombus;double=1;perimeter=rhombusPerimeter;whiteSpace=wrap;html=1;align=center;" vertex="1" parent="1">
          <mxGeometry x="1080" y="160" width="120" height="60" as="geometry" />
        </mxCell>
        <mxCell id="-x1Lza4WPiMV8X5rYuyz-253" value="" style="endArrow=none;html=1;rounded=0;exitX=1;exitY=0;exitDx=0;exitDy=0;" edge="1" parent="1" source="-x1Lza4WPiMV8X5rYuyz-16">
          <mxGeometry relative="1" as="geometry">
            <mxPoint x="920" y="190" as="sourcePoint" />
            <mxPoint x="1080" y="190" as="targetPoint" />
          </mxGeometry>
        </mxCell>
        <mxCell id="-x1Lza4WPiMV8X5rYuyz-254" value="1" style="resizable=0;html=1;align=right;verticalAlign=bottom;" connectable="0" vertex="1" parent="-x1Lza4WPiMV8X5rYuyz-253">
          <mxGeometry x="1" relative="1" as="geometry" />
        </mxCell>
        <mxCell id="-x1Lza4WPiMV8X5rYuyz-257" value="" style="shape=link;html=1;rounded=0;exitX=0.5;exitY=0;exitDx=0;exitDy=0;entryX=0.43;entryY=1.05;entryDx=0;entryDy=0;entryPerimeter=0;" edge="1" parent="1" source="-x1Lza4WPiMV8X5rYuyz-252" target="-x1Lza4WPiMV8X5rYuyz-250">
          <mxGeometry relative="1" as="geometry">
            <mxPoint x="1270" y="140" as="sourcePoint" />
            <mxPoint x="1430" y="140" as="targetPoint" />
          </mxGeometry>
        </mxCell>
        <mxCell id="-x1Lza4WPiMV8X5rYuyz-258" value="1" style="resizable=0;html=1;align=right;verticalAlign=bottom;" connectable="0" vertex="1" parent="-x1Lza4WPiMV8X5rYuyz-257">
          <mxGeometry x="1" relative="1" as="geometry" />
        </mxCell>
        <mxCell id="-x1Lza4WPiMV8X5rYuyz-267" value="" style="edgeStyle=orthogonalEdgeStyle;rounded=0;orthogonalLoop=1;jettySize=auto;html=1;" edge="1" parent="1" source="-x1Lza4WPiMV8X5rYuyz-259" target="-x1Lza4WPiMV8X5rYuyz-266">
          <mxGeometry relative="1" as="geometry" />
        </mxCell>
        <mxCell id="-x1Lza4WPiMV8X5rYuyz-278" value="" style="edgeStyle=orthogonalEdgeStyle;rounded=0;orthogonalLoop=1;jettySize=auto;html=1;" edge="1" parent="1" source="-x1Lza4WPiMV8X5rYuyz-259" target="-x1Lza4WPiMV8X5rYuyz-272">
          <mxGeometry relative="1" as="geometry" />
        </mxCell>
        <mxCell id="-x1Lza4WPiMV8X5rYuyz-280" value="" style="edgeStyle=orthogonalEdgeStyle;rounded=0;orthogonalLoop=1;jettySize=auto;html=1;" edge="1" parent="1" source="-x1Lza4WPiMV8X5rYuyz-259" target="-x1Lza4WPiMV8X5rYuyz-279">
          <mxGeometry relative="1" as="geometry" />
        </mxCell>
        <mxCell id="-x1Lza4WPiMV8X5rYuyz-283" value="" style="edgeStyle=orthogonalEdgeStyle;rounded=0;orthogonalLoop=1;jettySize=auto;html=1;" edge="1" parent="1" source="-x1Lza4WPiMV8X5rYuyz-259" target="-x1Lza4WPiMV8X5rYuyz-282">
          <mxGeometry relative="1" as="geometry" />
        </mxCell>
        <mxCell id="-x1Lza4WPiMV8X5rYuyz-285" style="edgeStyle=orthogonalEdgeStyle;rounded=0;orthogonalLoop=1;jettySize=auto;html=1;" edge="1" parent="1" source="-x1Lza4WPiMV8X5rYuyz-259" target="-x1Lza4WPiMV8X5rYuyz-284">
          <mxGeometry relative="1" as="geometry">
            <Array as="points">
              <mxPoint x="1632" y="975" />
              <mxPoint x="1807" y="975" />
            </Array>
          </mxGeometry>
        </mxCell>
        <mxCell id="-x1Lza4WPiMV8X5rYuyz-259" value="Produto" style="shape=ext;margin=3;double=1;whiteSpace=wrap;html=1;align=center;" vertex="1" parent="1">
          <mxGeometry x="1582" y="915" width="100" height="40" as="geometry" />
        </mxCell>
        <mxCell id="-x1Lza4WPiMV8X5rYuyz-260" value="" style="edgeStyle=orthogonalEdgeStyle;rounded=0;orthogonalLoop=1;jettySize=auto;html=1;" edge="1" parent="1" source="-x1Lza4WPiMV8X5rYuyz-263" target="-x1Lza4WPiMV8X5rYuyz-264">
          <mxGeometry relative="1" as="geometry" />
        </mxCell>
        <mxCell id="-x1Lza4WPiMV8X5rYuyz-261" value="" style="edgeStyle=orthogonalEdgeStyle;rounded=0;orthogonalLoop=1;jettySize=auto;html=1;" edge="1" parent="1" source="-x1Lza4WPiMV8X5rYuyz-263" target="-x1Lza4WPiMV8X5rYuyz-265">
          <mxGeometry relative="1" as="geometry" />
        </mxCell>
        <mxCell id="-x1Lza4WPiMV8X5rYuyz-262" value="" style="edgeStyle=orthogonalEdgeStyle;rounded=0;orthogonalLoop=1;jettySize=auto;html=1;" edge="1" parent="1" source="-x1Lza4WPiMV8X5rYuyz-263" target="-x1Lza4WPiMV8X5rYuyz-266">
          <mxGeometry relative="1" as="geometry" />
        </mxCell>
        <mxCell id="-x1Lza4WPiMV8X5rYuyz-263" value="Data de saida" style="ellipse;whiteSpace=wrap;html=1;align=center;" vertex="1" parent="1">
          <mxGeometry x="1507" y="1025" width="100" height="40" as="geometry" />
        </mxCell>
        <mxCell id="-x1Lza4WPiMV8X5rYuyz-264" value="Dia" style="ellipse;whiteSpace=wrap;html=1;align=center;" vertex="1" parent="1">
          <mxGeometry x="1392" y="1015" width="100" height="40" as="geometry" />
        </mxCell>
        <mxCell id="-x1Lza4WPiMV8X5rYuyz-265" value="Ano" style="ellipse;whiteSpace=wrap;html=1;align=center;" vertex="1" parent="1">
          <mxGeometry x="1657" y="1025" width="100" height="40" as="geometry" />
        </mxCell>
        <mxCell id="-x1Lza4WPiMV8X5rYuyz-266" value="Mês" style="ellipse;whiteSpace=wrap;html=1;align=center;" vertex="1" parent="1">
          <mxGeometry x="1507" y="1085" width="100" height="40" as="geometry" />
        </mxCell>
        <mxCell id="-x1Lza4WPiMV8X5rYuyz-269" value="" style="edgeStyle=orthogonalEdgeStyle;rounded=0;orthogonalLoop=1;jettySize=auto;html=1;" edge="1" parent="1" source="-x1Lza4WPiMV8X5rYuyz-272" target="-x1Lza4WPiMV8X5rYuyz-273">
          <mxGeometry relative="1" as="geometry" />
        </mxCell>
        <mxCell id="-x1Lza4WPiMV8X5rYuyz-271" value="" style="edgeStyle=orthogonalEdgeStyle;rounded=0;orthogonalLoop=1;jettySize=auto;html=1;" edge="1" parent="1" source="-x1Lza4WPiMV8X5rYuyz-272">
          <mxGeometry relative="1" as="geometry">
            <mxPoint x="1862" y="940" as="targetPoint" />
          </mxGeometry>
        </mxCell>
        <mxCell id="-x1Lza4WPiMV8X5rYuyz-277" style="edgeStyle=orthogonalEdgeStyle;rounded=0;orthogonalLoop=1;jettySize=auto;html=1;entryX=0;entryY=1;entryDx=0;entryDy=0;" edge="1" parent="1" source="-x1Lza4WPiMV8X5rYuyz-272" target="-x1Lza4WPiMV8X5rYuyz-274">
          <mxGeometry relative="1" as="geometry" />
        </mxCell>
        <mxCell id="-x1Lza4WPiMV8X5rYuyz-272" value="Data de saida" style="ellipse;whiteSpace=wrap;html=1;align=center;" vertex="1" parent="1">
          <mxGeometry x="1712" y="915" width="100" height="40" as="geometry" />
        </mxCell>
        <mxCell id="-x1Lza4WPiMV8X5rYuyz-273" value="Dia" style="ellipse;whiteSpace=wrap;html=1;align=center;" vertex="1" parent="1">
          <mxGeometry x="1702" y="845" width="100" height="40" as="geometry" />
        </mxCell>
        <mxCell id="-x1Lza4WPiMV8X5rYuyz-274" value="Ano" style="ellipse;whiteSpace=wrap;html=1;align=center;" vertex="1" parent="1">
          <mxGeometry x="1812" y="865" width="100" height="40" as="geometry" />
        </mxCell>
        <mxCell id="-x1Lza4WPiMV8X5rYuyz-275" value="Mês" style="ellipse;whiteSpace=wrap;html=1;align=center;" vertex="1" parent="1">
          <mxGeometry x="1822" y="835" width="100" height="40" as="geometry" />
        </mxCell>
        <mxCell id="-x1Lza4WPiMV8X5rYuyz-276" value="" style="edgeStyle=orthogonalEdgeStyle;rounded=0;orthogonalLoop=1;jettySize=auto;html=1;endArrow=none;" edge="1" parent="1" source="-x1Lza4WPiMV8X5rYuyz-272">
          <mxGeometry relative="1" as="geometry">
            <mxPoint x="1812" y="935" as="sourcePoint" />
            <mxPoint x="1862" y="940" as="targetPoint" />
          </mxGeometry>
        </mxCell>
        <mxCell id="-x1Lza4WPiMV8X5rYuyz-279" value="Nome" style="ellipse;whiteSpace=wrap;html=1;align=center;" vertex="1" parent="1">
          <mxGeometry x="1452" y="915" width="100" height="40" as="geometry" />
        </mxCell>
        <mxCell id="-x1Lza4WPiMV8X5rYuyz-282" value="Codigo" style="ellipse;whiteSpace=wrap;html=1;align=center;fontStyle=4;" vertex="1" parent="1">
          <mxGeometry x="1582" y="835" width="100" height="40" as="geometry" />
        </mxCell>
        <mxCell id="-x1Lza4WPiMV8X5rYuyz-284" value="Valor" style="ellipse;whiteSpace=wrap;html=1;align=center;" vertex="1" parent="1">
          <mxGeometry x="1757" y="985" width="100" height="40" as="geometry" />
        </mxCell>
        <mxCell id="-x1Lza4WPiMV8X5rYuyz-286" value="Depende de" style="shape=rhombus;double=1;perimeter=rhombusPerimeter;whiteSpace=wrap;html=1;align=center;" vertex="1" parent="1">
          <mxGeometry x="1400" y="810" width="120" height="60" as="geometry" />
        </mxCell>
        <mxCell id="-x1Lza4WPiMV8X5rYuyz-287" value="" style="shape=link;html=1;rounded=0;exitX=0.45;exitY=0.033;exitDx=0;exitDy=0;exitPerimeter=0;entryX=0.62;entryY=1;entryDx=0;entryDy=0;entryPerimeter=0;" edge="1" parent="1" source="-x1Lza4WPiMV8X5rYuyz-286" target="-x1Lza4WPiMV8X5rYuyz-121">
          <mxGeometry relative="1" as="geometry">
            <mxPoint x="872" y="850" as="sourcePoint" />
            <mxPoint x="1032" y="850" as="targetPoint" />
          </mxGeometry>
        </mxCell>
        <mxCell id="-x1Lza4WPiMV8X5rYuyz-288" value="1" style="resizable=0;html=1;align=right;verticalAlign=bottom;" connectable="0" vertex="1" parent="-x1Lza4WPiMV8X5rYuyz-287">
          <mxGeometry x="1" relative="1" as="geometry" />
        </mxCell>
        <mxCell id="-x1Lza4WPiMV8X5rYuyz-289" value="" style="endArrow=none;html=1;rounded=0;exitX=0;exitY=0;exitDx=0;exitDy=0;entryX=0.5;entryY=1;entryDx=0;entryDy=0;" edge="1" parent="1" source="-x1Lza4WPiMV8X5rYuyz-259" target="-x1Lza4WPiMV8X5rYuyz-286">
          <mxGeometry relative="1" as="geometry">
            <mxPoint x="872" y="850" as="sourcePoint" />
            <mxPoint x="1032" y="850" as="targetPoint" />
          </mxGeometry>
        </mxCell>
        <mxCell id="-x1Lza4WPiMV8X5rYuyz-290" value="1" style="resizable=0;html=1;align=right;verticalAlign=bottom;" connectable="0" vertex="1" parent="-x1Lza4WPiMV8X5rYuyz-289">
          <mxGeometry x="1" relative="1" as="geometry" />
        </mxCell>
        <mxCell id="-x1Lza4WPiMV8X5rYuyz-298" value="" style="edgeStyle=orthogonalEdgeStyle;rounded=0;orthogonalLoop=1;jettySize=auto;html=1;" edge="1" parent="1" source="-x1Lza4WPiMV8X5rYuyz-291" target="-x1Lza4WPiMV8X5rYuyz-297">
          <mxGeometry relative="1" as="geometry" />
        </mxCell>
        <mxCell id="-x1Lza4WPiMV8X5rYuyz-300" style="edgeStyle=orthogonalEdgeStyle;rounded=0;orthogonalLoop=1;jettySize=auto;html=1;entryX=0;entryY=0.5;entryDx=0;entryDy=0;" edge="1" parent="1" source="-x1Lza4WPiMV8X5rYuyz-291" target="-x1Lza4WPiMV8X5rYuyz-299">
          <mxGeometry relative="1" as="geometry">
            <mxPoint x="1110" y="-270" as="targetPoint" />
          </mxGeometry>
        </mxCell>
        <mxCell id="-x1Lza4WPiMV8X5rYuyz-302" style="edgeStyle=orthogonalEdgeStyle;rounded=0;orthogonalLoop=1;jettySize=auto;html=1;entryX=0;entryY=0.5;entryDx=0;entryDy=0;" edge="1" parent="1" source="-x1Lza4WPiMV8X5rYuyz-291" target="-x1Lza4WPiMV8X5rYuyz-301">
          <mxGeometry relative="1" as="geometry" />
        </mxCell>
        <mxCell id="-x1Lza4WPiMV8X5rYuyz-291" value="Modalidade" style="whiteSpace=wrap;html=1;align=center;" vertex="1" parent="1">
          <mxGeometry x="1010" y="-230" width="100" height="40" as="geometry" />
        </mxCell>
        <mxCell id="-x1Lza4WPiMV8X5rYuyz-292" value="Relationship" style="shape=rhombus;perimeter=rhombusPerimeter;whiteSpace=wrap;html=1;align=center;" vertex="1" parent="1">
          <mxGeometry x="940" y="-150" width="120" height="60" as="geometry" />
        </mxCell>
        <mxCell id="-x1Lza4WPiMV8X5rYuyz-293" value="" style="shape=link;html=1;rounded=0;entryX=1;entryY=0;entryDx=0;entryDy=0;" edge="1" parent="1" target="-x1Lza4WPiMV8X5rYuyz-64">
          <mxGeometry relative="1" as="geometry">
            <mxPoint x="1000" y="-90" as="sourcePoint" />
            <mxPoint x="1160" y="-90" as="targetPoint" />
          </mxGeometry>
        </mxCell>
        <mxCell id="-x1Lza4WPiMV8X5rYuyz-294" value="N" style="resizable=0;html=1;align=right;verticalAlign=bottom;" connectable="0" vertex="1" parent="-x1Lza4WPiMV8X5rYuyz-293">
          <mxGeometry x="1" relative="1" as="geometry" />
        </mxCell>
        <mxCell id="-x1Lza4WPiMV8X5rYuyz-295" value="" style="shape=link;html=1;rounded=0;entryX=0.5;entryY=1;entryDx=0;entryDy=0;" edge="1" parent="1" target="-x1Lza4WPiMV8X5rYuyz-291">
          <mxGeometry relative="1" as="geometry">
            <mxPoint x="1000" y="-150" as="sourcePoint" />
            <mxPoint x="1160" y="-150" as="targetPoint" />
          </mxGeometry>
        </mxCell>
        <mxCell id="-x1Lza4WPiMV8X5rYuyz-296" value="N" style="resizable=0;html=1;align=right;verticalAlign=bottom;" connectable="0" vertex="1" parent="-x1Lza4WPiMV8X5rYuyz-295">
          <mxGeometry x="1" relative="1" as="geometry" />
        </mxCell>
        <mxCell id="-x1Lza4WPiMV8X5rYuyz-297" value="Nome" style="ellipse;whiteSpace=wrap;html=1;align=center;" vertex="1" parent="1">
          <mxGeometry x="1150" y="-230" width="100" height="40" as="geometry" />
        </mxCell>
        <mxCell id="-x1Lza4WPiMV8X5rYuyz-299" value="Codigo" style="ellipse;whiteSpace=wrap;html=1;align=center;fontStyle=4;" vertex="1" parent="1">
          <mxGeometry x="1120" y="-290" width="100" height="40" as="geometry" />
        </mxCell>
        <mxCell id="-x1Lza4WPiMV8X5rYuyz-301" value="Objetivo" style="ellipse;whiteSpace=wrap;html=1;align=center;" vertex="1" parent="1">
          <mxGeometry x="1130" y="-170" width="100" height="40" as="geometry" />
        </mxCell>
      </root>
    </mxGraphModel>
  </diagram>
</mxfile>
